<svg xmlns="http://www.w3.org/2000/svg" width="22" height="21" viewBox="0 0 22 21"><g><g><path fill="#fff" d="M15.521 15.176h-2.517v-3.773h1.28l.194-1.617h-1.474v-.965c0-.431.116-.652.736-.652h.881v-1.41c-.27-.019-.687-.059-1.234-.059-1.137 0-2 .695-2 1.973v1.113H10.04v1.617h1.348v3.773H6.72c-.301 0-.452-.32-.452-.623V5.751c0-.301.15-.546.452-.546h8.801c.3 0 .447.245.447.546v8.802c0 .302-.148.623-.447.623zM.76 10.223c0 5.643 4.58 10.22 10.231 10.22 5.648 0 10.23-4.577 10.23-10.22C21.22 4.577 16.638 0 10.99 0 5.341 0 .76 4.577.76 10.223z"/></g></g></svg>