<svg xmlns="http://www.w3.org/2000/svg" width="27.062" height="36.079" viewBox="0 0 27.062 36.079">
    <defs>
        <style>
            .prefix__cls-1{fill:#fff}
        </style>
    </defs>
    <g id="prefix___522575" transform="translate(0 18)">
        <g id="prefix__Group_319" transform="translate(0 -18)">
            <g id="prefix__Group_318">
                <path id="prefix__Path_305" d="M26.838 7.737L19.325.224A.773.773 0 0 0 18.791 0H3.006A3 3 0 0 0 0 3.006v30.067a3 3 0 0 0 3.006 3.006h21.05a3 3 0 0 0 3.006-3.006V8.259a.8.8 0 0 0-.224-.522zm-7.3-5.179l4.955 4.955h-3.454a1.5 1.5 0 0 1-1.5-1.5zm6.011 30.515a1.5 1.5 0 0 1-1.5 1.5H3.006a1.5 1.5 0 0 1-1.5-1.5V3.006a1.519 1.519 0 0 1 1.5-1.515h15.027v4.52a3 3 0 0 0 3.006 3.006h4.508z" class="prefix__cls-1"/>
                <path id="prefix__Path_306" d="M53.5 169.4H36.958a.758.758 0 1 0 0 1.515h16.53a.753.753 0 0 0 .758-.758.742.742 0 0 0-.745-.758z" class="prefix__cls-1" transform="translate(-31.704 -148.361)"/>
                <path id="prefix__Path_307" d="M53.5 133.1H36.958a.758.758 0 1 0 0 1.515h16.53a.753.753 0 0 0 .758-.758.735.735 0 0 0-.745-.758z" class="prefix__cls-1" transform="translate(-31.704 -116.57)"/>
                <path id="prefix__Path_308" d="M53.5 205.7H36.958a.758.758 0 1 0 0 1.515h16.53a.758.758 0 0 0 .012-1.515z" class="prefix__cls-1" transform="translate(-31.704 -180.153)"/>
                <path id="prefix__Path_309" d="M45.974 242.1h-9.016a.758.758 0 0 0 0 1.515h9.017a.758.758 0 0 0 0-1.515z" class="prefix__cls-1" transform="translate(-31.704 -212.033)"/>
                <path id="prefix__Path_310" d="M96.8 97.558a.753.753 0 0 0 .758.758h9.017a.753.753 0 0 0 .758-.758.761.761 0 0 0-.758-.758h-9.017a.753.753 0 0 0-.758.758z" class="prefix__cls-1" transform="translate(-84.778 -84.778)"/>
                <path id="prefix__Path_311" d="M38.46 48.981h-1.5a.758.758 0 1 0 0 1.515h.758a.753.753 0 0 0 .758.758.761.761 0 0 0 .758-.758v-.136a2.249 2.249 0 0 0-.745-4.372.758.758 0 0 1 0-1.515h1.5a.758.758 0 0 0 0-1.515h-.759a.753.753 0 0 0-.758-.758.761.761 0 0 0-.758.758v.137a2.249 2.249 0 0 0 .745 4.372.758.758 0 1 1 0 1.515z" class="prefix__cls-1" transform="translate(-31.704 -36.959)"/>
            </g>
        </g>
    </g>
</svg>
