<svg xmlns="http://www.w3.org/2000/svg" width="21" height="21" viewBox="0 0 21 21"><g><g><path fill="#fff" d="M13.053 15.313v-3.137c0-.832-.278-1.397-1.035-1.397-.577 0-.91.382-1.062.751-.056.132-.059.315-.059.5v3.283H8.811s.027-5.654 0-6.193h2.086v1.058c.27-.42.916-1.02 2.026-1.02 1.377 0 2.555.88 2.555 2.781v3.374zM6.596 8.582a1.121 1.121 0 0 1-1.156-1.13c0-.607.467-1.1 1.183-1.1.714 0 1.154.51 1.17 1.115 0 .595-.456 1.115-1.183 1.115zm-.819.538h1.877v6.193H5.777zM0 10.763c0 5.643 4.58 10.22 10.231 10.22 5.648 0 10.23-4.577 10.23-10.22C20.46 5.117 15.878.54 10.23.54 4.581.54 0 5.117 0 10.763z"/></g></g></svg>