<svg xmlns="http://www.w3.org/2000/svg" id="prefix__Component_8_2" width="40.665" height="37.463" data-name="Component 8 – 2" viewBox="0 0 40.665 37.463">
    <defs>
        <style>
            .prefix__cls-1{fill:#fff}
        </style>
    </defs>
    <g id="prefix__Group_37" data-name="Group 37">
        <g id="prefix__Group_36" data-name="Group 36">
            <path id="prefix__Path_185" d="M385.892 570.222c-.037-.405.408-1.676.408-2.117s-.479-1.527-.514-1.894.361-2.454.361-2.877a12.569 12.569 0 0 0-.409-1.459 36.965 36.965 0 0 1 .562-4.135s-3.148-1.015-3.4-1.178-1.756-1.235-2.2-1.43-2.224-.335-2.568-.477a15.026 15.026 0 0 1-1.826-1.351 9.6 9.6 0 0 0-2.817-.911h-.056c-.423 0-1.216-.3-1.576-.334a3.556 3.556 0 0 1-1.581-1c-.238-.346-1.049-.292-1.755-.433a13.072 13.072 0 0 1-2.557-1.364s-2.129.781-2.474.887-.477.573-1.032.8a16.411 16.411 0 0 1-2.516.662c-.292.018-.777.688-.865.882s-1.081.21-1.862.485-2.013.7-2.251.848a15.506 15.506 0 0 0-1.455.98c-.212.211-1.642.439-1.907.609s-1.253 1.134-1.508 1.279-1.887.154-2.384.362-2.079.675-2.079.675v2.1c0 .609.474.864.509 1.146s-.509 1.951-.509 2.295a18.215 18.215 0 0 1 .332 2.224 19.312 19.312 0 0 0-.332 2.278 12.434 12.434 0 0 0 .474 1.87c.1.513-.433 2.682-.3 3.318a8.3 8.3 0 0 1-.173 1.906 11.471 11.471 0 0 0 .3 1.607 8.466 8.466 0 0 1-.3 1.768 6.285 6.285 0 0 1 1.135.641 12.383 12.383 0 0 0 1.951.8 1.677 1.677 0 0 0 .5.049c.176 0 .37-.007.554-.007.391 0 .735.032.749.22.027.373.9.768 1.324 1.113s2.371.574 2.647.849a4.22 4.22 0 0 0 1.757 1.057h.034a17.119 17.119 0 0 1 2.356.372 7.964 7.964 0 0 1 1.824 1.455c.26.238 1.583.555 2 .821a3.043 3.043 0 0 0 1.284.189c.313 0 .555-.018.555-.018l.819.458v.047h.086l.762.424s3.439-.65 3.748-.834 1.695-.406 1.88-.662a2.364 2.364 0 0 1 1.522-.47H373.205c.605 0 1.71-.779 1.931-.779h.037a5.07 5.07 0 0 0 1.878-.531c.265-.263 1.386-1.112 1.536-1.216s1.814-.345 2.224-.583c.393-.231 1.006-.876 1.174-.876a.046.046 0 0 1 .018 0 .162.162 0 0 0 .042.005 8.559 8.559 0 0 0 1.944-.482 7.709 7.709 0 0 0 .979-1.243 14.678 14.678 0 0 1 1.335-.81v-2.139a15.391 15.391 0 0 1-.3-1.756c-.037-.582.3-1.88.3-2.3s-.377-1.409-.411-1.815zm-20.116 4.384a4.779 4.779 0 0 1-.343.93 11.632 11.632 0 0 0-.685 2.868 3.93 3.93 0 0 0 .273 1.328c.031.1.07.217.092.294-.019.07-.059.182-.09.269a4.157 4.157 0 0 0-.273 1.084 2.251 2.251 0 0 0 .239 1.157 1.075 1.075 0 0 1 .131.465v1.318l-.43-.24-.5.032s-.2.012-.447.012a4.406 4.406 0 0 1-.558-.029 8.2 8.2 0 0 0-1.176-.468c-.164-.058-.4-.136-.536-.191l-.012-.012a5.907 5.907 0 0 0-2.442-1.722 20.681 20.681 0 0 0-2.549-.409 5 5 0 0 1-.787-.573 3.951 3.951 0 0 0-2.006-.826c-.268-.064-.7-.164-.893-.233-.171-.127-.348-.24-.521-.35-.071-.047-.163-.1-.242-.157a1.979 1.979 0 0 0-1.354-1.023 4.013 4.013 0 0 0-.9-.081H349.156c-.074-.028-.16-.057-.254-.092-.241-.086-.826-.3-1.1-.417a2.949 2.949 0 0 0-.248-.181 3.329 3.329 0 0 0 .044-1.15c-.031-.189-.078-.39-.129-.6a6.294 6.294 0 0 1-.145-.722c.007-.068.037-.221.059-.334a4.923 4.923 0 0 0 .092-1.857c0-.248.1-.937.161-1.314a6.387 6.387 0 0 0 .131-2.046 7.454 7.454 0 0 0-.253-.907 6.282 6.282 0 0 1-.191-.668 15.975 15.975 0 0 1 .278-1.8l.028-.147a5.651 5.651 0 0 0-.2-2.086c-.028-.134-.062-.3-.084-.419.04-.18.12-.478.175-.69a4.961 4.961 0 0 0 .3-1.838 2.257 2.257 0 0 0-.447-1.058 4.338 4.338 0 0 0 1.2.549c.593.138 1.638.272 2.222.341a3.682 3.682 0 0 0 1.488 1.387 6.052 6.052 0 0 0 2.354.211 3.29 3.29 0 0 0 1.467 1.257c.177.047.417.083.72.13a8.467 8.467 0 0 1 1.257.255 2.206 2.206 0 0 0 1.447.581 3.508 3.508 0 0 0 1.138-.031 1.153 1.153 0 0 1 .26.183 1.888 1.888 0 0 0 1.026 1.324 3.927 3.927 0 0 0 1.265.539c.234.04 1.223.269 2.049.465a3.388 3.388 0 0 1-.1 1.709 7.79 7.79 0 0 0-.063 2.346c.007.2.012.42.012.482a2.305 2.305 0 0 0 .344 1.057c.08.171.209.449.254.575.006.2.023.38.041.556a4.138 4.138 0 0 1 .022.967zm-2.271-9.824a2.719 2.719 0 0 1-.9-.486 1.844 1.844 0 0 0-1.017-1.317 1.533 1.533 0 0 0-1.353-.212 2.847 2.847 0 0 1-.933-.1c-.385-.435-1.114-.576-2.221-.745-.181-.029-.385-.06-.5-.082a5.1 5.1 0 0 1-.832-.986l-.288-.429-.511.057a6.063 6.063 0 0 1-2.014-.044 2.735 2.735 0 0 1-.875-1.017l-.211-.4-.45-.048c-.016 0-1.7-.181-2.438-.353a1.013 1.013 0 0 1-.134-.042c.154-.017.309-.031.423-.041a4 4 0 0 0 1.68-.363 7.2 7.2 0 0 0 1.094-.886c.127-.114.3-.269.42-.373.119-.033.285-.073.408-.1a3.835 3.835 0 0 0 1.813-.76c.077-.06.328-.239 1.127-.736l.018-.011c.121-.056.374-.151.66-.254l16.985 7.077-.3.184a3.658 3.658 0 0 0-.512.411 1.553 1.553 0 0 1-.18.152.26.26 0 0 1-.062.006 6.273 6.273 0 0 0-2.276.28 4.915 4.915 0 0 0-1.313 1.031c-.2.191-.383.373-.529.489a11.763 11.763 0 0 1-2.309.664c-.556-.138-2.101-.504-2.475-.567zm11.536 17.518a2.9 2.9 0 0 0-1.252.442 7.431 7.431 0 0 1-.686.331 5.036 5.036 0 0 0-1.4.214 3.18 3.18 0 0 0-1.135.581c-.149.048-.365.1-.512.144a5.717 5.717 0 0 0-1.051.344c-.31.092-1.22.289-2.194.484V583a2.72 2.72 0 0 0-.271-1.143c-.089-.2-.111-.263-.1-.342a2.8 2.8 0 0 1 .18-.651 2.139 2.139 0 0 0 .189-1.015 4.162 4.162 0 0 0-.176-.647 4.023 4.023 0 0 1-.191-.712 10.748 10.748 0 0 1 .515-2.216 5.883 5.883 0 0 0 .5-1.469 5.76 5.76 0 0 0-.012-1.328c-.018-.173-.032-.338-.034-.5a3.193 3.193 0 0 0-.412-1.188c-.06-.127-.143-.307-.185-.41 0-.091-.006-.23-.012-.461-.012-.415-.043-1.486-.016-1.783a4.992 4.992 0 0 0 .185-2.28 7.567 7.567 0 0 0 2.357-.843 8.79 8.79 0 0 0 .672-.612 4.886 4.886 0 0 1 .8-.685 5.718 5.718 0 0 1 1.608-.143 1.9 1.9 0 0 0 1.39-.606 2.265 2.265 0 0 1 .29-.238 8.637 8.637 0 0 1 .955-.528v19.1zm1.039-20.913l-16.98-7.081c.06-.012.12-.027.179-.042a1.942 1.942 0 0 0 1.316-1l.033-.048a18.52 18.52 0 0 0 2.481-.7 3.271 3.271 0 0 0 1.18-.849c.373-.13.973-.346 1.479-.531.113.068.232.14.358.213a6.8 6.8 0 0 0 2.067.934c.292.059.568.089.812.115l.231.027a5.359 5.359 0 0 0 .88.676 3.524 3.524 0 0 0 1.562.634c.073.014.253.063.374.1a5.465 5.465 0 0 0 1.386.249 11.219 11.219 0 0 1 1.879.592 9.036 9.036 0 0 0 2.176 1.541 6.545 6.545 0 0 0 1.511.309c.319.044.836.118 1.051.169.323.18 1.23.805 1.538 1.019.2.14.311.214.384.263a1.508 1.508 0 0 0 .14.082 5.052 5.052 0 0 0-.563.511 4.382 4.382 0 0 1-.49.448 2.6 2.6 0 0 0-1.829 1.358 1.772 1.772 0 0 1-.677.389c-.4.168-.861.308-1.228.42-.285.087-.5.151-.652.218a3.609 3.609 0 0 1-.598-.019zm7.475 16.742c-.2.3-.39.561-.522.73-.3.087-.783.2-1.011.234h-.04a2.5 2.5 0 0 0-1.653.8c-.094.081-.241.207-.333.274-.222.07-.735.177-1 .23a3.4 3.4 0 0 0-1.394.464c-.007 0-.428.315-.87.66V563.1a1.7 1.7 0 0 0 .606-.139c.066-.028.293-.1.475-.153a5.351 5.351 0 0 0 2.8-1.457c.441-.63.54-.64.678-.652a2.6 2.6 0 0 0 1.455-.93c.1-.1.241-.241.325-.312l1.252-.218-.018.112a9.232 9.232 0 0 0-.243 2.809 5.479 5.479 0 0 0 .287.981c.03.079.068.179.089.248-.024.22-.093.672-.142.987a9.157 9.157 0 0 0-.2 2 5.311 5.311 0 0 0 .3 1.151c.058.173.149.442.191.6-.031.149-.092.393-.137.568a5.2 5.2 0 0 0-.253 1.674 6.4 6.4 0 0 0 .242 1.105c.049.178.128.46.154.605-.017.132-.063.39-.1.568a8.087 8.087 0 0 0-.2 1.817 14.579 14.579 0 0 0 .3 1.839v.971a2.678 2.678 0 0 0-1.038.851z" class="prefix__cls-1" data-name="Path 185" transform="translate(-345.634 -549.267)"/>
        </g>
    </g>
    <g id="prefix__Group_39" data-name="Group 39" transform="translate(3.388 14.602)">
        <g id="prefix__Group_38" data-name="Group 38">
            <path id="prefix__Path_186" d="M349.531 562.413a.847.847 0 1 0 .847.846.847.847 0 0 0-.847-.846z" class="prefix__cls-1" data-name="Path 186" transform="translate(-348.684 -562.413)"/>
        </g>
    </g>
    <g id="prefix__Group_41" data-name="Group 41" transform="translate(6.777 21.38)">
        <g id="prefix__Group_40" data-name="Group 40">
            <path id="prefix__Path_187" d="M352.583 568.516a.846.846 0 1 0 .846.846.846.846 0 0 0-.846-.846z" class="prefix__cls-1" data-name="Path 187" transform="translate(-351.736 -568.516)"/>
        </g>
    </g>
    <g id="prefix__Group_43" data-name="Group 43" transform="translate(13.554 24.768)">
        <g id="prefix__Group_42" data-name="Group 42">
            <path id="prefix__Path_188" d="M358.684 571.566a.848.848 0 1 0 .849.846.848.848 0 0 0-.849-.846z" class="prefix__cls-1" data-name="Path 188" transform="translate(-357.837 -571.566)"/>
        </g>
    </g>
    <g id="prefix__Group_45" data-name="Group 45" transform="translate(10.166 28.155)">
        <g id="prefix__Group_44" data-name="Group 44">
            <path id="prefix__Path_189" d="M355.633 574.616a.847.847 0 1 0 .847.849.847.847 0 0 0-.847-.849z" class="prefix__cls-1" data-name="Path 189" transform="translate(-354.787 -574.616)"/>
        </g>
    </g>
    <g id="prefix__Group_47" data-name="Group 47" transform="translate(15.25 28.155)">
        <g id="prefix__Group_46" data-name="Group 46">
            <path id="prefix__Path_190" d="M360.21 574.616a.847.847 0 1 0 .847.849.847.847 0 0 0-.847-.849z" class="prefix__cls-1" data-name="Path 190" transform="translate(-359.364 -574.616)"/>
        </g>
    </g>
    <g id="prefix__Group_49" data-name="Group 49" transform="translate(3.388 24.768)">
        <g id="prefix__Group_48" data-name="Group 48">
            <path id="prefix__Path_191" d="M349.531 571.566a.848.848 0 1 0 .847.846.848.848 0 0 0-.847-.846z" class="prefix__cls-1" data-name="Path 191" transform="translate(-348.684 -571.566)"/>
        </g>
    </g>
    <g id="prefix__Group_51" data-name="Group 51" transform="translate(10.166 17.99)">
        <g id="prefix__Group_50" data-name="Group 50">
            <path id="prefix__Path_192" d="M355.633 565.464a.847.847 0 1 0 .847.847.847.847 0 0 0-.847-.847z" class="prefix__cls-1" data-name="Path 192" transform="translate(-354.787 -565.464)"/>
        </g>
    </g>
    <g id="prefix__Group_53" data-name="Group 53" transform="translate(35.583 15.448)">
        <g id="prefix__Group_52" data-name="Group 52">
            <path id="prefix__Path_193" d="M378.516 563.175a.847.847 0 1 0 .847.849.847.847 0 0 0-.847-.849z" class="prefix__cls-1" data-name="Path 193" transform="translate(-377.67 -563.175)"/>
        </g>
    </g>
    <g id="prefix__Group_55" data-name="Group 55" transform="translate(32.193 22.227)">
        <g id="prefix__Group_54" data-name="Group 54">
            <path id="prefix__Path_194" d="M375.465 569.278a.847.847 0 1 0 .846.846.847.847 0 0 0-.846-.846z" class="prefix__cls-1" data-name="Path 194" transform="translate(-374.618 -569.278)"/>
        </g>
    </g>
    <g id="prefix__Group_57" data-name="Group 57" transform="translate(25.416 25.614)">
        <g id="prefix__Group_56" data-name="Group 56">
            <path id="prefix__Path_195" d="M369.363 572.328a.847.847 0 1 0 .847.849.847.847 0 0 0-.847-.849z" class="prefix__cls-1" data-name="Path 195" transform="translate(-368.517 -572.328)"/>
        </g>
    </g>
    <g id="prefix__Group_59" data-name="Group 59" transform="translate(23.72 18.838)">
        <g id="prefix__Group_58" data-name="Group 58">
            <path id="prefix__Path_196" d="M367.839 566.227a.846.846 0 1 0 .847.846.847.847 0 0 0-.847-.846z" class="prefix__cls-1" data-name="Path 196" transform="translate(-366.99 -566.227)"/>
        </g>
    </g>
    <g id="prefix__Group_61" data-name="Group 61" transform="translate(23.72 5.281)">
        <g id="prefix__Group_60" data-name="Group 60">
            <path id="prefix__Path_197" d="M367.839 554.022a.847.847 0 1 0 .847.848.848.848 0 0 0-.847-.848z" class="prefix__cls-1" data-name="Path 197" transform="translate(-366.99 -554.022)"/>
        </g>
    </g>
    <g id="prefix__Group_63" data-name="Group 63" transform="translate(18.638 12.078)">
        <g id="prefix__Group_62" data-name="Group 62">
            <path id="prefix__Path_198" d="M363.261 560.141a.847.847 0 1 0 .847.846.847.847 0 0 0-.847-.846z" class="prefix__cls-1" data-name="Path 198" transform="translate(-362.414 -560.141)"/>
        </g>
    </g>
    <g id="prefix__Group_65" data-name="Group 65" transform="translate(18.638 5.281)">
        <g id="prefix__Group_64" data-name="Group 64">
            <path id="prefix__Path_199" d="M363.261 554.022a.847.847 0 1 0 .847.848.848.848 0 0 0-.847-.848z" class="prefix__cls-1" data-name="Path 199" transform="translate(-362.414 -554.022)"/>
        </g>
    </g>
    <g id="prefix__Group_67" data-name="Group 67" transform="translate(13.554 8.672)">
        <g id="prefix__Group_66" data-name="Group 66">
            <path id="prefix__Path_200" d="M358.684 557.074a.847.847 0 1 0 .849.846.847.847 0 0 0-.849-.846z" class="prefix__cls-1" data-name="Path 200" transform="translate(-357.837 -557.074)"/>
        </g>
    </g>
    <g id="prefix__Group_69" data-name="Group 69" transform="translate(8.471 8.672)">
        <g id="prefix__Group_68" data-name="Group 68">
            <path id="prefix__Path_201" d="M354.108 557.074a.847.847 0 1 0 .847.846.847.847 0 0 0-.847-.846z" class="prefix__cls-1" data-name="Path 201" transform="translate(-353.261 -557.074)"/>
        </g>
    </g>
    <g id="prefix__Group_71" data-name="Group 71" transform="translate(28.804 8.672)">
        <g id="prefix__Group_70" data-name="Group 70">
            <path id="prefix__Path_202" d="M372.414 557.074a.847.847 0 1 0 .847.846.847.847 0 0 0-.847-.846z" class="prefix__cls-1" data-name="Path 202" transform="translate(-371.567 -557.074)"/>
        </g>
    </g>
    <g id="prefix__Group_73" data-name="Group 73" transform="translate(23.72 29.004)">
        <g id="prefix__Group_72" data-name="Group 72">
            <path id="prefix__Path_203" d="M367.839 575.38a.846.846 0 1 0 .847.846.847.847 0 0 0-.847-.846z" class="prefix__cls-1" data-name="Path 203" transform="translate(-366.99 -575.38)"/>
        </g>
    </g>
    <g id="prefix__Group_75" data-name="Group 75" transform="translate(35.583 25.614)">
        <g id="prefix__Group_74" data-name="Group 74">
            <path id="prefix__Path_204" d="M378.516 572.328a.847.847 0 1 0 .847.849.847.847 0 0 0-.847-.849z" class="prefix__cls-1" data-name="Path 204" transform="translate(-377.67 -572.328)"/>
        </g>
    </g>
</svg>
