<svg xmlns="http://www.w3.org/2000/svg" width="54" height="34.156" viewBox="0 0 54 34.156">
    <defs>
        <style>
            .prefix__cls-1{fill:#fff}
        </style>
    </defs>
    <g id="prefix__GP-Icon_Shipment">
        <g id="prefix__Group_307">
            <g id="prefix__Group_306">
                <path id="prefix__Path_299" d="M50.241 14.492L48.843 8.9a.851.851 0 0 0 .676-.827v-.9a3.554 3.554 0 0 0-3.548-3.548H39.6V1.744A1.745 1.745 0 0 0 37.854 0H5.352a1.745 1.745 0 0 0-1.744 1.744v15.334a.842.842 0 1 0 1.684 0V1.744a.065.065 0 0 1 .06-.06h32.487a.065.065 0 0 1 .06.06v15.334a.842.842 0 1 0 1.684 0v-.962h9.982A2.775 2.775 0 0 1 52.2 18.04h-2.635a.84.84 0 0 0-.842.842v1.8a2.65 2.65 0 0 0 2.646 2.646h.962v3.732h-2.21a5.358 5.358 0 0 0-10.132 0h-.406v-6.374a.842.842 0 1 0-1.684 0v6.374H20.34a5.358 5.358 0 0 0-10.132 0H5.352a.065.065 0 0 1-.06-.06v-1.864H8.96a.842.842 0 1 0 0-1.684H.842a.842.842 0 0 0 0 1.684h2.766V27a1.745 1.745 0 0 0 1.744 1.744h4.57v.06a5.352 5.352 0 1 0 10.7 0v-.06h19.066v.06a5.352 5.352 0 1 0 10.7 0v-.06h2.766A.84.84 0 0 0 54 27.9v-9.02a4.392 4.392 0 0 0-3.759-4.388zM39.583 5.307h6.374a1.864 1.864 0 0 1 1.864 1.864v.06h-8.238zm0 9.125V8.9H47.1l1.383 5.532zM15.274 32.487a3.668 3.668 0 1 1 3.668-3.668 3.683 3.683 0 0 1-3.668 3.668zm29.781 0a3.668 3.668 0 1 1 3.668-3.668 3.683 3.683 0 0 1-3.668 3.668zm7.276-10.839h-.962a.969.969 0 0 1-.962-.962v-.962h1.924v1.924z" class="prefix__cls-1"/>
            </g>
        </g>
        <g id="prefix__Group_309" transform="translate(13.535 27.07)">
            <g id="prefix__Group_308">
                <path id="prefix__Path_300" d="M81.044 158.6a1.744 1.744 0 1 0 1.744 1.744 1.745 1.745 0 0 0-1.744-1.744z" class="prefix__cls-1" transform="translate(-79.3 -158.6)"/>
            </g>
        </g>
        <g id="prefix__Group_311" transform="translate(43.303 27.07)">
            <g id="prefix__Group_310">
                <path id="prefix__Path_301" d="M255.444 158.6a1.744 1.744 0 1 0 1.744 1.744 1.726 1.726 0 0 0-1.744-1.744z" class="prefix__cls-1" transform="translate(-253.7 -158.6)"/>
            </g>
        </g>
        <g id="prefix__Group_313" transform="translate(21.659 23.453)">
            <g id="prefix__Group_312">
                <path id="prefix__Path_302" d="M140.37 137.4h-12.628a.842.842 0 1 0 0 1.684h12.628a.84.84 0 0 0 .842-.842.85.85 0 0 0-.842-.842z" class="prefix__cls-1" transform="translate(-126.9 -137.4)"/>
            </g>
        </g>
        <g id="prefix__Group_315" transform="translate(1.809 19.851)">
            <g id="prefix__Group_314">
                <path id="prefix__Path_303" d="M22.266 116.3H11.442a.842.842 0 0 0 0 1.684h10.824a.842.842 0 1 0 0-1.684z" class="prefix__cls-1" transform="translate(-10.6 -116.3)"/>
            </g>
        </g>
        <g id="prefix__Group_317" transform="translate(15.336 8.117)">
            <g id="prefix__Group_316">
                <path id="prefix__Path_304" d="M103.929 47.8a.853.853 0 0 0-1.2 0l-7.517 7.517-3.912-3.911a.85.85 0 0 0-1.2 1.2l4.51 4.51a.853.853 0 0 0 1.2 0L103.929 49a.853.853 0 0 0 0-1.2z" class="prefix__cls-1" transform="translate(-89.85 -47.55)"/>
            </g>
        </g>
    </g>
</svg>
