<svg xmlns="http://www.w3.org/2000/svg" id="prefix__Component_7_2" width="34.427" height="35.61" data-name="Component 7 – 2" viewBox="0 0 34.427 35.61">
    <defs>
        <style>
            .prefix__cls-1{fill:#fff}
        </style>
    </defs>
    <path id="prefix__Path_178" d="M207 568.2h-3.477v-1.558a4.105 4.105 0 0 0-3.13-3.965v-10.963a1.044 1.044 0 0 0-1.044-1.044h-24.69a1.043 1.043 0 0 0-1.043 1.044V580.3a1.043 1.043 0 0 0 1.043 1.043h16.066v.855a4.091 4.091 0 0 0 4.09 4.083h9.139a4.091 4.091 0 0 0 4.09-4.083V569.24A1.044 1.044 0 0 0 207 568.2zm-5.564-1.558v1.558h-4.1v-1.558a2.052 2.052 0 0 1 4.1 0zM175.7 579.255v-26.5h22.6v9.934a4.1 4.1 0 0 0-3.06 3.947v1.564h-3.478a1.043 1.043 0 0 0-1.043 1.043v10.015zm30.255 2.942a2 2 0 0 1-2 2h-9.139a2 2 0 0 1-2-2v-11.913h2.435v2.747a1.044 1.044 0 0 0 2.087 0v-2.747h4.1v2.747a1.044 1.044 0 0 0 2.087 0v-2.747h2.434z" class="prefix__cls-1" data-name="Path 178" transform="translate(-173.615 -550.67)"/>
    <path id="prefix__Path_179" d="M180.493 554.76l-1.185 1.273-.08-.1a1.043 1.043 0 0 0-1.626 1.307l.834 1.039a1.044 1.044 0 0 0 .775.39h.039a1.043 1.043 0 0 0 .763-.332l2.007-2.156a1.043 1.043 0 1 0-1.527-1.422z" class="prefix__cls-1" data-name="Path 179" transform="translate(-173.199 -550.254)"/>
    <path id="prefix__Path_180" d="M184.74 557.484h9.319a1.043 1.043 0 1 0 0-2.086h-9.319a1.043 1.043 0 1 0 0 2.086z" class="prefix__cls-1" data-name="Path 180" transform="translate(-172.499 -550.146)"/>
    <path id="prefix__Path_181" d="M180.493 560.458l-1.185 1.274-.08-.1a1.043 1.043 0 1 0-1.626 1.307l.834 1.037a1.044 1.044 0 0 0 .775.39h.039a1.043 1.043 0 0 0 .763-.332l2.007-2.156a1.043 1.043 0 1 0-1.527-1.422z" class="prefix__cls-1" data-name="Path 181" transform="translate(-173.199 -549.623)"/>
    <path id="prefix__Path_182" d="M184.74 563.183h5.841a1.044 1.044 0 1 0 0-2.087h-5.841a1.044 1.044 0 1 0 0 2.087z" class="prefix__cls-1" data-name="Path 182" transform="translate(-172.499 -549.516)"/>
    <path id="prefix__Path_183" d="M180.493 566.156l-1.185 1.274-.08-.1a1.043 1.043 0 1 0-1.626 1.307l.834 1.039a1.046 1.046 0 0 0 .775.389h.039a1.04 1.04 0 0 0 .763-.333l2.007-2.156a1.043 1.043 0 0 0-1.527-1.422z" class="prefix__cls-1" data-name="Path 183" transform="translate(-173.199 -548.992)"/>
    <path id="prefix__Path_184" d="M186.478 566.794h-1.738a1.043 1.043 0 1 0 0 2.087h1.738a1.043 1.043 0 0 0 0-2.087z" class="prefix__cls-1" data-name="Path 184" transform="translate(-172.499 -548.885)"/>
</svg>
