<svg xmlns="http://www.w3.org/2000/svg" id="prefix__Component_25_2" width="21.382" height="28.51" data-name="Component 25 – 2" viewBox="0 0 21.382 28.51">
    <g id="prefix__Group_185" data-name="Group 185">
        <path id="prefix__Path_240" fill="#979797" d="M84.788 10.691h-1.782V8.315a8.315 8.315 0 0 0-16.631 0v2.376h-1.781a.594.594 0 0 0-.594.594v14.849a2.378 2.378 0 0 0 2.376 2.376h16.63a2.378 2.378 0 0 0 2.376-2.376V11.285a.594.594 0 0 0-.594-.594zM76.469 23.1a.594.594 0 0 1-.59.66H73.5a.594.594 0 0 1-.59-.66l.375-3.369a2.35 2.35 0 0 1-.972-1.911 2.376 2.376 0 1 1 4.752 0 2.35 2.35 0 0 1-.972 1.911zm2.973-12.407h-9.5V8.315a4.752 4.752 0 0 1 9.5 0z" data-name="Path 240" transform="translate(-64)"/>
    </g>
</svg>
