<svg xmlns="http://www.w3.org/2000/svg" id="prefix__Component_11_2" width="20.145" height="24.744" data-name="Component 11 – 2" viewBox="0 0 20.145 24.744">
    <defs>
        <style>
            .prefix__cls-1{fill:#00a859}
        </style>
    </defs>
    <g id="prefix___80942" data-name="80942">
        <path id="prefix__Path_244" d="M119.739 298.068c0-.411-.285-.656-.788-.656a1.746 1.746 0 0 0-.417.04v1.318a1.581 1.581 0 0 0 .338.026c.535.004.867-.271.867-.728z" class="prefix__cls-1" data-name="Path 244" transform="translate(-114.749 -282.148)"/>
        <path id="prefix__Path_245" d="M194.261 297.681a2.083 2.083 0 0 0-.457.04v2.92a1.823 1.823 0 0 0 .351.02 1.384 1.384 0 0 0 1.51-1.563 1.281 1.281 0 0 0-1.404-1.417z" class="prefix__cls-1" data-name="Path 245" transform="translate(-186.157 -282.403)"/>
        <path id="prefix__Path_246" d="M58.7 0h-9.942a2.637 2.637 0 0 0-2.634 2.634v9.738h-.257a1.061 1.061 0 0 0-1.061 1.061v6.436a1.061 1.061 0 0 0 1.061 1.061h.257v1.18a2.636 2.636 0 0 0 2.634 2.634h13.56a2.636 2.636 0 0 0 2.633-2.634V6.233zM47.59 14.595a8.319 8.319 0 0 1 1.364-.092 2.14 2.14 0 0 1 1.364.357 1.3 1.3 0 0 1 .477 1.033 1.427 1.427 0 0 1-.411 1.06 2.07 2.07 0 0 1-1.45.47 2.614 2.614 0 0 1-.345-.019V19h-1zm14.728 8.537h-13.56a1.022 1.022 0 0 1-1.02-1.021V20.93h12.641a1.061 1.061 0 0 0 1.061-1.061v-6.436a1.061 1.061 0 0 0-1.061-1.061H47.738V2.634a1.021 1.021 0 0 1 1.02-1.019l9.335-.01v3.45a1.827 1.827 0 0 0 1.826 1.826l3.38-.01.038 15.239a1.021 1.021 0 0 1-1.019 1.021zM51.44 18.979v-4.384a9.09 9.09 0 0 1 1.36-.095 2.874 2.874 0 0 1 1.828.476 1.975 1.975 0 0 1 .755 1.682 2.262 2.262 0 0 1-.742 1.808 3.2 3.2 0 0 1-2.059.576 8.737 8.737 0 0 1-1.142-.063zm7.227-2.6v.821h-1.6V19h-1.016v-4.464h2.729v.827h-1.716v1.02z" class="prefix__cls-1" data-name="Path 246" transform="translate(-44.806)"/>
    </g>
</svg>
