<svg xmlns="http://www.w3.org/2000/svg" width="31.77" height="37.325" viewBox="0 0 31.77 37.325">
    <defs>
        <style>
            .prefix__cls-1{fill:#fff}
        </style>
    </defs>
    <g id="prefix__Group_320" transform="translate(-.044)">
        <path id="prefix__Path_312" d="M59.8 20.1h.241a7.133 7.133 0 0 0 5.459-2.347c2.969-3.361 2.471-9.1 2.426-9.66-.2-4.129-2.14-6.088-3.752-7.008A8.52 8.52 0 0 0 60.013 0h-.136a8.745 8.745 0 0 0-4.159 1.055c-1.628.919-3.6 2.893-3.8 7.038-.06.558-.558 6.3 2.426 9.66A7.178 7.178 0 0 0 59.8 20.1zM54 8.289c0-.03.015-.045.015-.06.256-5.546 4.189-6.134 5.877-6.134h.09c2.08.045 5.636.9 5.877 6.134a.091.091 0 0 0 .015.06c.015.06.558 5.3-1.914 8.078a5.091 5.091 0 0 1-3.979 1.658h-.075a5.062 5.062 0 0 1-3.979-1.658C53.472 13.608 53.985 8.334 54 8.289z" class="prefix__cls-1" transform="translate(-44.001)"/>
        <path id="prefix__Path_313" d="M31.8 142.475v-.03c0-.06-.015-.121-.015-.2-.045-1.537-.151-5.109-3.5-6.254l-.075-.03a22.491 22.491 0 0 1-6.42-2.924 1.039 1.039 0 0 0-1.191 1.7 24.326 24.326 0 0 0 7.053 3.225c1.793.648 2 2.562 2.05 4.325a.859.859 0 0 0 .015.2 14.237 14.237 0 0 1-.166 2.4 28.525 28.525 0 0 1-13.623 3.165A28.639 28.639 0 0 1 2.3 144.871a13.953 13.953 0 0 1-.166-2.381c0-.06.015-.121.015-.2.06-1.763.256-3.692 2.05-4.325a24.147 24.147 0 0 0 7.053-3.225 1.039 1.039 0 0 0-1.191-1.7 22.306 22.306 0 0 1-6.42 2.924c-.03.015-.06.015-.075.03C.2 137.14.112 140.727.067 142.249a.859.859 0 0 1-.015.2v.03a11.871 11.871 0 0 0 .392 3.5.91.91 0 0 0 .407.482 29.278 29.278 0 0 0 15.085 3.692 29.314 29.314 0 0 0 15.085-3.692 1.15 1.15 0 0 0 .407-.482 11.915 11.915 0 0 0 .372-3.504z" class="prefix__cls-1" transform="translate(0 -112.832)"/>
    </g>
</svg>
