<svg xmlns="http://www.w3.org/2000/svg" id="prefix___126486" width="23.083" height="27.137" data-name="126486" viewBox="0 0 23.083 27.137">
    <defs>
        <style>
            .prefix__cls-1{fill:#fff}
        </style>
    </defs>
    <g id="prefix__Group_320" data-name="Group 320">
        <path id="prefix__Path_312" d="M142.848 14.622h.18a5.185 5.185 0 0 0 3.962-1.714c2.164-2.439 1.8-6.62 1.765-7.019-.14-3-1.557-4.428-2.725-5.1A6.248 6.248 0 0 0 143.006 0h-.1a6.258 6.258 0 0 0-3.023.77c-1.18.669-2.619 2.1-2.759 5.119-.039.4-.4 4.58 1.765 7.019a5.165 5.165 0 0 0 3.959 1.714zm-4.22-8.592c0-.017.006-.034.006-.045.185-4.029 3.046-4.462 4.271-4.462h.067c1.517.034 4.1.652 4.271 4.462a.109.109 0 0 0 .006.045c.006.039.4 3.861-1.388 5.872a3.683 3.683 0 0 1-2.894 1.2h-.056a3.671 3.671 0 0 1-2.888-1.2c-1.783-2.002-1.401-5.839-1.395-5.872z" class="prefix__cls-1" data-name="Path 312" transform="translate(-131.405)"/>
        <path id="prefix__Path_313" d="M59.154 266.232v-.017c0-.045-.006-.09-.006-.141-.034-1.113-.107-3.715-2.546-4.546l-.056-.017a16.215 16.215 0 0 1-4.664-2.124.758.758 0 1 0-.871 1.242 17.5 17.5 0 0 0 5.131 2.343c1.309.466 1.455 1.866 1.495 3.147a1.129 1.129 0 0 0 .006.141 10.2 10.2 0 0 1-.119 1.74 20.681 20.681 0 0 1-9.907 2.3 20.8 20.8 0 0 1-9.913-2.31 9.656 9.656 0 0 1-.118-1.736c0-.045.006-.09.006-.14.039-1.281.185-2.681 1.495-3.147a17.666 17.666 0 0 0 5.131-2.343.758.758 0 1 0-.871-1.242 16.038 16.038 0 0 1-4.664 2.124l-.056.017c-2.439.837-2.512 3.439-2.546 4.546a1.129 1.129 0 0 1-.006.141v.017a8.617 8.617 0 0 0 .287 2.546.721.721 0 0 0 .292.354 21.256 21.256 0 0 0 10.969 2.686 21.321 21.321 0 0 0 10.969-2.686.752.752 0 0 0 .292-.354 9.041 9.041 0 0 0 .27-2.541z" class="prefix__cls-1" data-name="Path 313" transform="translate(-36.073 -244.676)"/>
    </g>
</svg>
