<svg xmlns="http://www.w3.org/2000/svg" width="24" height="36" viewBox="0 0 24 36"><defs><clipPath id="udeia"><path fill="#fff" d="M.21 11.59c0-6.075 4.925-11 11-11h1.576c6.075 0 11 4.925 11 11v12.828c0 6.075-4.925 11-11 11H11.21c-6.075 0-11-4.925-11-11z"/></clipPath></defs><g><g opacity=".7"><g opacity=".7"><path fill="none" stroke="#fff" stroke-miterlimit="50" stroke-width="4" d="M.21 11.59c0-6.075 4.925-11 11-11h1.576c6.075 0 11 4.925 11 11v12.828c0 6.075-4.925 11-11 11H11.21c-6.075 0-11-4.925-11-11z" clip-path="url(&quot;#udeia&quot;)"/></g><g opacity=".7"><path fill="#d8d8d8" d="M12 13.978a2.68 2.68 0 1 0 0-5.358 2.68 2.68 0 0 0 0 5.358z"/></g></g></g></svg>