<svg xmlns="http://www.w3.org/2000/svg" width="21" height="21" viewBox="0 0 21 21"><g><g><path fill="#fff" d="M14.645 8.873c0 2.806-2.083 6.043-5.89 6.043a5.767 5.767 0 0 1-3.175-.954 4.099 4.099 0 0 0 3.066-.879 2.081 2.081 0 0 1-1.934-1.474c.127.024.256.038.388.038.192 0 .396-.027.569-.076-.949-.194-1.641-1.054-1.641-2.084v-.024c.27.156.58.254.919.264a2.143 2.143 0 0 1-.933-1.768c0-.388.097-.755.275-1.067 1.021 1.285 2.544 2.13 4.266 2.218a2.055 2.055 0 0 1-.056-.482c0-1.173.927-2.125 2.07-2.125.595 0 1.133.257 1.51.669.472-.094.914-.27 1.316-.515a2.11 2.11 0 0 1-.912 1.175 3.99 3.99 0 0 0 1.189-.334c-.275.426-.628.8-1.032 1.1.002.092.005.183.005.275zM.52 10.763c0 5.643 4.58 10.22 10.231 10.22 5.648 0 10.23-4.577 10.23-10.22C20.98 5.117 16.398.54 10.75.54 5.101.54.52 5.117.52 10.763z"/></g></g></svg>