<?xml version="1.0" encoding="utf-8"?><svg xmlns="http://www.w3.org/2000/svg" xmlns:xlink="http://www.w3.org/1999/xlink" width="69" height="69" viewBox="0 0 69 69">
    <defs>
        <path id="a" d="M0 .155h57.95V58H0z"/>
        <path id="c" d="M.097.07h10.789v10.733H.096z"/>
    </defs>
    <g fill="none" fill-rule="evenodd">
        <g transform="translate(0 11)">
            <mask id="b" fill="#fff">
                <use xlink:href="#a"/>
            </mask>
            <path fill="#00A859" d="M49.148 8.892c3.338-.424 4.99-3.022 5.022-5.078-2.786.278-4.784 2.393-5.022 5.078M57.95.155c-.193.7-.363 1.297-.522 1.897-.323 1.22-.586 2.46-.97 3.66-.96 3.009-2.995 4.879-6.086 5.588a29.36 29.36 0 0 0-2.31.615c-.258.082-.492.3-.693.5C32.43 27.344 17.497 42.277 2.563 57.21c-.137.137-.27.28-.414.412-.541.498-1.263.502-1.787.015-.464-.433-.487-1.287-.04-1.8.114-.133.244-.25.368-.375 14.691-14.68 29.372-29.372 44.098-44.017 1.072-1.065 1.684-2.224 1.945-3.648.355-1.934 1.26-3.578 2.848-4.73.88-.64 1.895-1.161 2.925-1.508 1.636-.549 3.334-.908 5.007-1.345.107-.027.22-.03.436-.06" mask="url(#b)"/>
        </g>
        <path fill="#00A859" d="M8.999 44.402c-1.81 2.217-1.806 5.119.012 7.222 1.798-2.027 1.793-5.31-.012-7.222M9.02 39c.452.793.847 1.495 1.25 2.192.505.872 1.022 1.737 1.524 2.611 1.564 2.725 1.616 5.478.094 8.23-.842 1.522-1.732 3.016-2.602 4.522-.076.132-.164.255-.287.445l-.794-1.372c-.678-1.16-1.365-2.315-2.032-3.481-1.44-2.517-1.583-5.12-.275-7.702.926-1.829 2.036-3.566 3.122-5.445M33.026 27.699c2.108-2.819 1.448-5.657-.019-7.311-1.805 2.237-1.805 4.809.02 7.31M33.02 33c-1.111-1.922-2.286-3.719-3.22-5.632-1.176-2.41-1.027-4.882.26-7.241.882-1.615 1.832-3.192 2.752-4.785.059-.101.127-.197.222-.342.322.566.62 1.096.925 1.623.614 1.062 1.24 2.117 1.846 3.184 1.565 2.755 1.606 5.529.045 8.297-.912 1.62-1.86 3.219-2.83 4.896M48.642 36.006c-2.11-1.81-5.389-1.8-7.284-.006 2.116 1.776 4.862 1.788 7.284.006M36 35.992c.21-.136.35-.235.499-.322 1.42-.83 2.831-1.677 4.265-2.483 2.562-1.44 5.22-1.608 7.854-.294 1.821.908 3.545 2.015 5.382 3.073-.184.125-.317.226-.459.31-1.506.88-2.993 1.797-4.524 2.63-2.695 1.467-5.42 1.463-8.105-.038-1.625-.908-3.216-1.88-4.912-2.876M24.993 28.27c-1.839 2.497-1.83 4.924.002 7.355 1.807-2.305 1.814-5.02-.002-7.355m0 12.73c-.428-.752-.823-1.457-1.228-2.157-.517-.893-1.048-1.778-1.561-2.673-1.572-2.742-1.61-5.514-.083-8.278.912-1.649 1.89-3.26 2.84-4.892.036.01.083.01.095.03 1.025 1.768 2.134 3.494 3.051 5.317 1.274 2.532 1.168 5.107-.21 7.593-.932 1.682-1.913 3.337-2.904 5.06M41.02 12.372c-1.838 1.947-1.832 5.451.011 7.27 1.77-2.5 1.767-4.878-.01-7.27M41.019 7c.685 1.21 1.352 2.37 1.999 3.542.505.915 1.085 1.806 1.455 2.775.76 1.99.71 4.04-.228 5.942-.96 1.944-2.12 3.79-3.229 5.741-.128-.202-.225-.345-.312-.493-.86-1.467-1.74-2.922-2.57-4.406-1.475-2.637-1.516-5.323-.093-7.987.866-1.62 1.825-3.191 2.745-4.783.057-.1.132-.188.233-.331M25.358 51.976c2.327 1.96 5.43 1.67 7.263-.026-2.51-1.766-4.844-1.758-7.263.026M20 51.987c1.373-.79 2.653-1.542 3.95-2.262.842-.469 1.67-1.02 2.574-1.31 2.512-.805 4.892-.428 7.127 1.029 1.225.8 2.526 1.483 3.791 2.22.167.097.328.201.558.343-.513.296-.973.559-1.43.826-1.18.688-2.343 1.407-3.54 2.062-2.666 1.46-5.36 1.482-8.027.014-1.491-.82-2.947-1.704-4.418-2.561-.168-.098-.33-.204-.585-.36M17.009 43.671c1.815-2.287 1.787-5.505-.03-7.311-1.923 2.532-1.615 5.31.03 7.311M17.014 49c-1.062-1.833-2.154-3.56-3.089-5.368-1.257-2.43-1.223-4.94.042-7.36.925-1.77 1.993-3.464 3.044-5.272.131.206.245.371.345.544.835 1.438 1.685 2.868 2.496 4.32 1.51 2.704 1.538 5.435.038 8.152-.841 1.525-1.727 3.026-2.595 4.537-.076.134-.164.262-.281.447M17.332 59.985c2.383 1.802 4.879 1.805 7.284.009-2.154-1.8-4.976-1.803-7.284-.01m-5.332 0c1.345-.774 2.623-1.523 3.914-2.248.773-.434 1.533-.927 2.358-1.224 2.074-.746 4.18-.703 6.152.303 1.88.96 3.677 2.085 5.576 3.176-1.054.6-2.04 1.174-3.037 1.73-1.068.595-2.097 1.305-3.23 1.732-2.56.966-5.02.639-7.341-.874-1.225-.798-2.522-1.484-3.786-2.223-.183-.107-.362-.222-.606-.372M33.346 43.96c2.206 1.82 5.392 1.802 7.314-.013-2.49-1.787-4.85-1.79-7.314.012m-5.346 0c1.384-.784 2.684-1.542 4.004-2.262.88-.48 1.75-1.043 2.695-1.33 2.438-.742 4.747-.341 6.913 1.048 1.25.801 2.567 1.493 3.854 2.234.153.089.305.182.534.318-.22.14-.39.254-.568.358-1.45.853-2.887 1.734-4.359 2.55-2.704 1.5-5.437 1.502-8.14-.005-1.504-.838-2.974-1.738-4.46-2.612-.133-.079-.263-.166-.473-.299M56.639 27.014c-1.831-1.836-5.768-1.825-7.263.018 2.402 1.716 4.805 1.716 7.263-.018M62 26.977c-1.83 1.065-3.556 2.173-5.372 3.103-2.388 1.223-4.877 1.23-7.267.003-1.814-.932-3.542-2.038-5.361-3.097.164-.108.302-.206.448-.291 1.438-.844 2.862-1.715 4.32-2.523 2.942-1.63 5.862-1.551 8.748.184 1.294.777 2.61 1.516 3.915 2.274.17.098.335.204.569.347M51.54 12c-.747-.037-1.148-.266-1.39-.736-.231-.45-.189-.891.084-1.312.054-.083.119-.162.189-.233 3.093-3.093 6.185-6.187 9.282-9.276.4-.399.872-.561 1.428-.35a1.307 1.307 0 0 1 .594 2.03c-.084.112-.187.21-.286.31-3.008 3.008-6.012 6.02-9.034 9.014-.28.278-.68.436-.867.553M69 8.39c-.165.306-.27.67-.505.907-3.052 3.095-6.12 6.175-9.191 9.251-.595.596-1.384.595-1.92.042-.52-.539-.523-1.297.06-1.886 3.057-3.09 6.127-6.169 9.195-9.248.435-.435.951-.595 1.532-.32.497.234.756.638.829 1.255"/>
        <g transform="translate(58)">
            <mask id="d" fill="#fff">
                <use xlink:href="#c"/>
            </mask>
            <path fill="#00A859" d="M10.886 1.386c-.18.328-.297.718-.55.974-2.656 2.686-5.33 5.354-8.01 8.017-.558.556-1.312.56-1.83.059-.517-.501-.547-1.276 0-1.827A2072.39 2072.39 0 0 1 8.676.433c.401-.4.898-.463 1.403-.223.455.216.716.587.807 1.176" mask="url(#d)"/>
        </g>
        <path fill="#00A859" d="M46.553 10c-.742-.03-1.147-.249-1.383-.71-.246-.481-.245-1.003.134-1.387A774.997 774.997 0 0 1 52.908.316c.49-.482 1.244-.384 1.72.097.463.468.499 1.2.08 1.728-.074.093-.16.175-.244.26-2.353 2.347-4.7 4.7-7.067 7.035-.278.275-.661.445-.844.564M69 16.358c-.147.29-.232.64-.449.861a1103.46 1103.46 0 0 1-7.321 7.38c-.544.542-1.365.524-1.86.01a1.29 1.29 0 0 1 .014-1.822c2.45-2.478 4.913-4.944 7.378-7.407.405-.405.915-.483 1.424-.25.483.222.765.618.814 1.228"/>
    </g>
</svg>
