<?xml version="1.0" encoding="utf-8"?><svg xmlns="http://www.w3.org/2000/svg" xmlns:xlink="http://www.w3.org/1999/xlink" width="69" height="76" viewBox="0 0 69 76">
    <defs>
        <path id="a" d="M0 .258h66.942V76H0z"/>
    </defs>
    <g fill="none" fill-rule="evenodd">
        <g transform="translate(1)">
            <mask id="b" fill="#fff">
                <use xlink:href="#a"/>
            </mask>
            <path fill="#00A859" d="M12.536 47.541L3.72 63.044c3.318-.263 6.42-.503 9.518-.759.91-.075 1.175.052 1.577.903 1.247 2.642 2.491 5.285 3.74 7.926.094.197.219.38.397.686 2.96-5.204 5.848-10.285 8.773-15.43-6.032-1.342-11.008-4.313-15.188-8.829M63.31 62.993l-8.91-15.49c-4.154 4.58-9.178 7.506-15.174 8.86l8.866 15.519c.19-.376.332-.64.459-.911 1.25-2.668 2.506-5.334 3.74-8.01.248-.541.638-.812 1.197-.772 1.645.12 3.288.279 4.933.415 1.566.13 3.134.25 4.889.389m-4.316-34.377C58.937 14.4 47.427 2.87 33.413 2.927 19.416 2.984 7.966 14.384 7.97 28.667c.004 14.226 11.54 25.761 25.564 25.678 14.1-.084 25.513-11.619 25.458-25.73M32.469.259c8.704.2 15.356 2.845 20.8 8.267 4.433 4.417 7.101 9.805 7.989 16.049 1.055 7.42-.625 14.19-4.847 20.333-.252.367-.18.606.012.94 3.318 5.779 6.627 11.563 9.933 17.349.366.64.897 1.272.353 2.063-.521.76-1.277.574-2.027.507-3.289-.296-6.58-.55-9.867-.855-.528-.048-.685.23-.862.607-1.458 3.114-2.928 6.222-4.379 9.339-.269.579-.558 1.104-1.27 1.14-.739.04-1.105-.458-1.435-1.036-3.296-5.764-6.612-11.517-9.892-17.29-.353-.623-.715-.879-1.453-.836a40.96 40.96 0 0 1-4.178.002c-.637-.028-.985.154-1.305.717-3.308 5.813-6.648 11.607-9.968 17.412-.318.555-.66 1.047-1.365 1.03-.718-.019-1.017-.558-1.283-1.128-1.453-3.116-2.922-6.225-4.357-9.348-.219-.476-.452-.647-.994-.595-3.472.33-6.947.623-10.421.919-.584.049-1.112-.096-1.46-.628-.345-.53-.177-1.014.108-1.511C3.706 57.76 7.1 51.81 10.514 45.87c.214-.373.221-.617-.032-.991-3.133-4.616-4.891-9.7-5.08-15.316-.204-6.081 1.379-11.683 4.739-16.687 4.053-6.034 9.611-10.065 16.71-11.72C29.037.646 31.29.441 32.47.258" mask="url(#b)"/>
        </g>
        <path fill="#00A859" d="M34.005 9.547c-10.43.063-18.488 8.38-18.474 18.516.014 10.182 8.34 18.427 18.528 18.382 10.208-.046 18.43-8.25 18.41-18.435-.02-10.25-8.153-18.387-18.464-18.463M13 28.015C12.927 16.53 22.311 7.032 33.893 7 45.12 6.97 54.966 15.747 55 27.954 55.03 39.463 45.979 48.864 34.048 49 22.367 49.13 12.955 39.439 13 28.015"/>
        <path fill="#00A859" d="M43.755 24.929c-.193-.054-.318-.103-.449-.123-1.808-.276-3.614-.57-5.428-.81-.85-.112-1.4-.48-1.765-1.301-.722-1.623-1.539-3.203-2.322-4.798-.093-.19-.223-.36-.378-.608-.934 1.914-1.836 3.708-2.683 5.527-.317.68-.776 1.04-1.499 1.145-1.81.262-3.618.549-5.426.829-.208.032-.414.08-.727.143.23.25.362.405.505.547 1.277 1.262 2.53 2.551 3.845 3.771.6.557.765 1.166.628 1.925-.16.887-.319 1.775-.469 2.664-.186 1.098-.363 2.199-.564 3.425.33-.152.516-.227.692-.32 1.601-.847 3.208-1.682 4.797-2.552.646-.354 1.232-.36 1.88-.004 1.627.894 3.273 1.754 4.915 2.623.145.077.308.12.547.21-.032-.287-.043-.468-.073-.646-.312-1.847-.613-3.695-.948-5.537-.119-.652.003-1.171.498-1.628a53.11 53.11 0 0 0 1.873-1.837c.835-.85 1.656-1.715 2.551-2.645M24.018 39.713l1.003-5.974c.118-.708.191-1.427.372-2.117.127-.488-.034-.765-.36-1.084-1.822-1.79-3.621-3.604-5.438-5.399-.44-.434-.73-.909-.53-1.54.188-.598.647-.836 1.244-.925 2.555-.38 5.105-.803 7.662-1.168.46-.066.66-.284.847-.665 1.126-2.3 2.275-4.59 3.406-6.889.26-.529.586-.933 1.228-.951.678-.02 1.03.392 1.303.945 1.132 2.298 2.277 4.59 3.402 6.892.197.404.428.612.91.68 2.557.362 5.106.79 7.66 1.169.614.09 1.02.38 1.212.967.195.596-.105 1.032-.495 1.419-1.813 1.8-3.622 3.605-5.457 5.381-.377.364-.48.699-.386 1.216.453 2.456.864 4.919 1.285 7.38.108.636.142 1.262-.494 1.674-.573.372-1.13.23-1.683-.067-2.182-1.17-4.374-2.322-6.545-3.512-.494-.27-.881-.294-1.39-.008-2.217 1.25-4.458 2.457-6.695 3.668-.77.417-1.714.136-1.968-.567-.061-.17-.065-.36-.093-.525"/>
    </g>
</svg>
