<?xml version="1.0" encoding="utf-8"?><svg xmlns="http://www.w3.org/2000/svg" width="50" height="78" viewBox="0 0 50 78"><defs><clipPath id="1fdua"><path d="M1.843.46h36.201V23.58H1.843z"/></clipPath><clipPath id="1fdub"><path d="M.379 44.324h39.1v17.672H.379z"/></clipPath></defs><g><g><g><g><g/><g clip-path="url(#1fdua)"><path fill="#00a859" d="M6.355 11.358c.243-1.727.425-3.48.754-5.207.217-1.137.641-2.235.978-3.349.117-.387.344-.66.794-.579.426.076.498.413.534.781.337 3.406.681 6.81 1.023 10.215l.17.002c.146-1.203.352-2.403.424-3.61.147-2.436.224-4.875.32-7.314.016-.368.056-.708.48-.814.377-.093.62.09.802.413.84 1.493 1.37 3.093 1.696 4.766.126.641.24 1.285.456 1.932.144-1.793.29-3.585.431-5.378.027-.345.026-.692.049-1.038.025-.377.15-.69.596-.708.42-.018.629.217.699.615.316 1.792.638 3.583.958 5.375a.42.42 0 0 0 .152.28c.053-.265.098-.531.161-.793.471-1.943.946-3.885 1.42-5.828.087-.361.248-.658.68-.66.431 0 .597.292.684.656l1.508 6.31c.023.1.041.2.173.308.125-.773.24-1.547.38-2.317.197-1.093.417-2.18.615-3.273.08-.436.284-.725.763-.668.456.055.56.402.586.795l.42 6.045.158.014.194-1.007c.358-1.847.832-3.656 1.76-5.318.19-.341.402-.628.849-.524.46.107.474.475.494.857.169 3.072.34 6.143.53 9.214.034.56.156 1.114.319 1.676.22-1.824.456-3.647.653-5.474.17-1.594.298-3.192.44-4.788.032-.376.137-.693.57-.747.423-.052.614.215.753.57.872 2.223 1.308 4.542 1.536 6.907.054.56.089 1.121.143 1.814.313-.78.526-1.476.858-2.109.778-1.48 1.605-2.934 2.43-4.39.189-.331.47-.576.906-.378.457.208.43.583.328.976-.836 3.21-1.547 6.447-1.845 9.754-.213 2.356-.326 4.722-.45 7.086-.051.995-.147 1.133-1.151 1.133H5.406c-1.093 0-1.207-.125-1.219-1.23A67.599 67.599 0 0 0 1.911 5.673c-.054-.204-.106-.458-.03-.634.082-.188.322-.44.482-.432.25.012.595.155.715.354.782 1.291 1.55 2.594 2.248 3.931.417.797.7 1.664 1.029 2.467m13.698-7.833l-.178.015-.068.258c-.946 3.668-1.293 7.422-1.611 11.18-.039.452-.146.816-.663.824-.526.007-.634-.357-.666-.811a547.346 547.346 0 0 0-.451-5.994c-.03-.361-.108-.719-.164-1.078-.268 1.067-.408 2.128-.605 3.179-.184.983-.42 1.956-.652 2.93-.084.352-.374.556-.7.436-.224-.082-.426-.347-.534-.578-.092-.2-.03-.466-.048-.702-.12-1.561-.196-3.127-.38-4.68-.117-1-.393-1.98-.598-2.969-.201 1.712-.276 3.406-.5 5.08-.281 2.109-.684 4.202-1.038 6.301-.07.413-.302.669-.745.642-.408-.024-.543-.33-.597-.672-.34-2.121-.692-4.24-1.002-6.366-.188-1.293-.308-2.595-.459-3.893-.243 1.13-.475 2.26-.52 3.397-.09 2.31-.082 4.624-.105 6.937-.004.422-.074.79-.572.837-.485.045-.659-.283-.748-.7-.217-1.014-.396-2.04-.686-3.035-.444-1.525-.968-3.028-1.458-4.54l-.147.044c.853 4.18 1.238 8.412 1.349 12.687h28.86c.104-4.278.493-8.51 1.32-12.698-.11.186-.2.378-.282.573-.939 2.247-1.542 4.588-1.988 6.974-.079.42-.267.743-.75.694-.498-.05-.58-.42-.565-.841.035-.984.094-1.968.088-2.951-.016-2.477-.167-4.944-.692-7.525-.046.302-.075.46-.094.618-.24 1.97-.455 3.944-.727 5.91-.182 1.316-.44 2.622-.673 3.93-.062.347-.23.619-.64.627-.403.008-.59-.231-.676-.587-.026-.106-.066-.21-.083-.317-.37-2.391-.773-4.779-1.092-7.178-.173-1.295-.203-2.61-.305-4.013-.067.213-.11.332-.143.454-.642 2.335-.861 4.724-.909 7.135-.006.31.028.639-.067.921-.067.2-.312.46-.495.474-.217.017-.484-.165-.667-.33-.116-.104-.137-.33-.17-.508-.374-1.943-.742-3.887-1.105-5.795-.023.126-.075.313-.092.504-.192 2.25-.385 4.499-.563 6.75-.033.423-.182.717-.636.729-.445.01-.634-.249-.68-.684-.245-2.355-.463-4.714-.779-7.06-.204-1.522-.56-3.024-.849-4.535"/></g></g><g><g/><g clip-path="url(#1fdub)"><path fill="#00a859" d="M34.11 56.931l-1.885 4.493c-.144.345-.367.583-.784.553-.413-.03-.523-.33-.62-.656-.353-1.174-.714-2.345-1.074-3.517-.05-.161-.117-.318-.222-.604-.209.615-.361 1.106-.541 1.586-.416 1.112-.975 2.145-1.923 2.91-.209.17-.632.316-.818.22-.225-.118-.393-.495-.429-.779-.162-1.294-.268-2.596-.395-3.894l-.24-.024c-.058.148-.122.294-.173.445-.41 1.232-.82 2.463-1.225 3.697-.114.346-.264.659-.701.634-.45-.026-.6-.346-.677-.73-.226-1.126-.462-2.25-.69-3.349-.357 1.156-.707 2.302-1.068 3.445-.108.344-.31.71-.709.611-.277-.069-.608-.359-.702-.622-.403-1.129-.728-2.284-1.084-3.44l-.644 3.084c-.03.141-.014.318-.096.417-.181.217-.405.537-.625.548-.213.01-.56-.273-.644-.5-.458-1.234-.85-2.491-1.268-3.74-.055-.163-.12-.323-.18-.485l-.18-.006c-.14.982-.293 1.962-.417 2.946-.045.356.026.73-.05 1.076-.057.252-.218.57-.427.674-.177.087-.544-.024-.734-.167-1.013-.76-1.571-1.835-2.007-2.976-.183-.479-.331-.97-.607-1.456l-.903 2.913c-.117.379-.185.78-.36 1.13-.121.243-.388.577-.59.578-.25 0-.628-.246-.734-.48-.555-1.231-1.046-2.49-1.548-3.744-.106-.266-.164-.552-.27-.916-.163.175-.279.322-.417.444-1.29 1.146-2.581 2.293-3.883 3.427-.282.247-.625.33-.955.07-.311-.248-.262-.564-.13-.887 1.434-3.521 2.065-7.231 2.671-10.946.21-1.279.353-2.568.536-3.85.093-.648.293-.785.963-.729.237.02.477.028.715.028 9.709.002 19.417.001 29.126.001.128 0 .257.003.386-.001 1.195-.04 1.196-.003 1.38 1.175.471 3.004.893 6.02 1.502 8.997.363 1.772 1.039 3.483 1.586 5.217.112.353.27.7-.09.99-.378.302-.741.143-1.045-.123-1.285-1.126-2.558-2.265-3.833-3.402-.119-.106-.219-.233-.267-.286m-17.536 1.785c.256-.787.435-1.486.713-2.146a8.87 8.87 0 0 1 .938-1.694c.134-.187.577-.336.778-.257.204.081.37.455.401.717.101.874.115 1.758.203 2.634.042.409.178.808.272 1.211.446-1.27.6-2.546.564-3.845-.01-.352.08-.718.457-.753.246-.023.625.15.756.352.391.6.728 1.243 1.012 1.9.248.573.395 1.188.618 1.88.399-1.21.74-2.33 1.149-3.426.096-.258.39-.565.638-.61.2-.036.59.238.685.462.383.888.716 1.8 1 2.723.17.551.216 1.14.344 1.861.19-.362.35-.57.416-.804.395-1.401.776-2.806 1.145-4.214.097-.368.184-.715.657-.736.431-.02.611.262.727.612.35 1.061.705 2.121 1.053 3.184.19.58.37 1.163.555 1.745l.17.013c.377-1.386.737-2.777 1.149-4.154.081-.272.332-.635.565-.684.229-.047.547.232.799.404.127.088.185.267.294.388.857.948 1.72 1.892 2.654 2.918-.482-2.236-.97-4.3-1.365-6.382-.399-2.1-.707-4.215-1.058-6.345H4.959c-.615 4.234-1.2 8.453-2.473 12.624.183-.145.31-.222.406-.326.908-.988 1.802-1.99 2.724-2.964.167-.175.481-.375.67-.33.227.054.436.332.572.56.115.19.102.452.167.677.345 1.209.696 2.416 1.045 3.624.66-1.648 1.19-3.257 1.718-4.866.123-.377.275-.732.769-.703.507.031.559.424.65.804.28 1.172.552 2.346.885 3.504.138.481.423.923.641 1.382.12-.17.125-.294.14-.418.181-1.397.412-2.782 1.155-4.023.176-.294.338-.624.779-.573.45.053.567.401.682.753.348 1.073.7 2.145 1.086 3.321"/></g></g><g><path fill="#00a859" d="M19.678 34.34c4.916 0 9.832-.002 14.749.002 1.311.001 2.09.6 2.34 1.775.223 1.049-.502 2.188-1.536 2.376a6.523 6.523 0 0 1-1.153.097c-9.575.006-19.15.006-28.725 0-.385 0-.773-.028-1.155-.083a1.955 1.955 0 0 1-1.66-1.71c-.112-1.052.352-1.933 1.26-2.259.372-.133.79-.189 1.186-.19 4.898-.012 9.796-.008 14.694-.007m-.017 2.866l14.574-.001c.201 0 .443.055.596-.037.241-.145.563-.375.591-.603.03-.238-.19-.603-.408-.75-.215-.148-.562-.125-.851-.125-9.679-.006-19.357-.005-29.036-.005-.184 0-.372-.015-.55.018-.442.082-.767.308-.727.825.038.484.357.665.797.673.22.004.441.004.662.004h14.352"/></g><g><path fill="#00a859" d="M19.646 28.666c-4.892 0-9.784.003-14.676-.003-.95 0-1.784-.247-2.234-1.219-.599-1.293.107-2.708 1.491-2.944a6.893 6.893 0 0 1 1.153-.084c9.545-.005 19.09-.005 28.634 0 .384 0 .773.033 1.151.099.904.156 1.567.953 1.637 1.924.062.844-.485 1.728-1.299 2.007-.376.128-.786.21-1.181.211-4.892.014-9.785.01-14.676.01m.008-2.88H5.08c-.202 0-.442-.063-.598.025-.235.13-.53.343-.578.569-.047.221.124.566.306.74.161.153.472.2.716.201 9.826.01 19.653.01 29.48.001.228 0 .52-.034.668-.174.19-.178.398-.513.35-.722-.056-.242-.361-.451-.598-.615-.115-.08-.322-.025-.488-.025H19.654"/></g><g><path fill="#00a859" d="M19.637 33.63H4.95c-.985 0-1.817-.284-2.252-1.289-.491-1.134.088-2.46 1.252-2.81a3.837 3.837 0 0 1 1.087-.148c9.774-.008 19.548-.008 29.321-.005 1.18 0 1.961.46 2.29 1.323.534 1.399-.318 2.764-1.825 2.915-.22.022-.441.013-.662.013H19.637m.083-2.867H5.247c-.202 0-.405-.002-.607.009-.408.022-.714.19-.78.642-.066.46.205.703.58.837.185.067.395.088.594.088 9.759.004 19.518.004 29.277-.003.25 0 .513-.06.746-.155.356-.145.528-.487.378-.825-.107-.24-.393-.436-.643-.56-.18-.089-.433-.033-.654-.033H19.72"/></g><g><path fill="#00a859" d="M19.66 39.304c4.988 0 9.976-.002 14.963.003 1.11 0 1.84.579 2.117 1.636.318 1.217-.537 2.487-1.752 2.596-.183.016-.368.013-.552.013-9.847.001-19.694-.003-29.54.006-.981 0-1.774-.271-2.2-1.273-.56-1.314.29-2.829 1.67-2.964.237-.024.478-.016.717-.016H19.66m-.034 2.882h14.63c.22 0 .498.068.649-.042.24-.176.513-.454.56-.728.062-.359-.142-.71-.579-.76a4.846 4.846 0 0 0-.55-.03l-29.261.001c-.202 0-.406-.003-.606.025-.412.056-.602.337-.62.746-.017.428.202.687.596.765.196.039.404.022.606.022 4.858.002 9.717.001 14.575.001"/></g></g></g></g></svg>