<?xml version="1.0" encoding="utf-8"?><svg xmlns="http://www.w3.org/2000/svg" xmlns:xlink="http://www.w3.org/1999/xlink" width="68" height="67" viewBox="0 0 68 67">
    <defs>
        <path id="a" d="M.031.261H54.61v23.432H.031z"/>
    </defs>
    <g fill="none" fill-rule="evenodd">
        <path fill="#00A859" d="M28.965 46.22c-7.808-3.196-15.82-5.561-24.096-7.003-1.155-.202-2.314-.377-3.472-.555-.836-.128-1.144-.412-1.06-1.008.082-.586.488-.775 1.308-.658 9.989 1.423 19.613 4.177 28.923 8.066.478.199.861.17 1.324-.01 2.434-.951 4.88-1.872 7.355-2.816-4.034-1.845-8.112-3.508-12.314-4.868-6.15-1.99-12.404-3.525-18.792-4.478-2.224-.332-4.472-.51-6.706-.776-.29-.034-.66-.091-.828-.284-.18-.206-.302-.655-.195-.87.123-.25.533-.522.801-.505 1.613.1 3.227.232 4.83.442 8.068 1.057 15.968 2.88 23.622 5.65 3.877 1.404 7.635 3.139 11.457 4.698.333.135.78.188 1.117.087 5.603-1.67 11.274-3.035 17.06-3.872 2.158-.312 4.33-.52 6.495-.774.116-.013.234-.012.351-.017.516-.023.884.174.938.726.058.586-.288.882-.822.94-.98.108-1.963.169-2.942.275-6.05.659-11.978 1.924-17.842 3.543-9.784 2.7-19.056 6.605-27.71 11.948-5.374 3.319-10.376 7.14-14.915 11.56-.37.36-.737.729-1.126 1.069-.39.34-.82.387-1.185-.024-.353-.4-.297-.84.069-1.2.922-.909 1.813-1.86 2.806-2.683 2.641-2.192 5.33-4.326 7.999-6.483.108-.087.214-.177.432-.356-1.857-.6-3.615-1.201-5.392-1.736-1.707-.513-3.435-.953-5.15-1.44-.264-.074-.618-.16-.732-.356-.153-.265-.259-.745-.12-.946.163-.236.643-.425.931-.366 1.192.247 2.375.555 3.54.914 2.71.835 5.408 1.719 8.116 2.566.242.075.588.13.777.015 2-1.225 3.976-2.486 6.032-3.783-1.684-.588-3.292-1.255-4.956-1.713-4.474-1.23-8.972-2.373-13.46-3.55-.205-.053-.488-.04-.597-.172-.216-.262-.468-.606-.464-.914.007-.447.385-.705.85-.624 1.061.185 2.124.374 3.174.615 5.766 1.323 11.438 2.965 16.96 5.112.236.092.574.145.781.043 2.273-1.116 4.53-2.268 6.828-3.429"/>
        <g transform="translate(13.054 43.245)">
            <mask id="b" fill="#fff">
                <use xlink:href="#a"/>
            </mask>
            <path fill="#00A859" d="M53.652.261c.585.01.887.241.949.738.074.604-.304.84-.82.926-1.46.243-2.928.452-4.386.71-14.603 2.588-28.254 7.607-40.704 15.64-2.34 1.511-4.54 3.237-6.805 4.863-.114.082-.22.176-.334.256-.589.41-1.054.403-1.357-.052-.351-.528-.09-.905.342-1.248 5.894-4.687 12.277-8.598 19.105-11.814 9.339-4.4 19.12-7.425 29.288-9.265 1.596-.288 3.204-.513 4.722-.754" mask="url(#b)"/>
        </g>
        <path fill="#00A859" d="M66.157 49.945c.523.015.889.203.929.773.048.669-.411.823-.92.944-2.81.666-5.63 1.288-8.422 2.022-6.101 1.604-11.964 3.896-17.688 6.57-3.925 1.833-7.685 3.973-11.334 6.323-.138.089-.274.18-.416.263-.421.248-.81.226-1.107-.197-.327-.462-.187-.889.225-1.178a48.406 48.406 0 0 1 2.7-1.78 104.947 104.947 0 0 1 23.672-10.583c3.917-1.198 7.928-2.074 11.898-3.093.156-.04.322-.045.463-.064M33.69 9.572c-2.732.007-5 2.233-5.013 4.918-.012 2.863 2.213 5.144 5.016 5.14 2.733-.006 5.056-2.315 5.026-4.998-.03-2.825-2.26-5.068-5.03-5.06m.054-1.654c3.671.02 6.681 3.096 6.631 6.778-.05 3.642-3.135 6.677-6.734 6.621-3.723-.057-6.669-3.115-6.622-6.87.046-3.598 3.085-6.548 6.725-6.529M67.696 58.068c-.028.608-.478.751-.952.885-2.48.699-4.98 1.342-7.435 2.12a104.98 104.98 0 0 0-14.106 5.597c-.192.093-.38.202-.58.267-.499.163-.913.01-1.124-.466-.217-.49-.023-.886.455-1.112.663-.313 1.34-.597 2.004-.908 6.56-3.069 13.387-5.364 20.399-7.132.82-.207 1.357.094 1.339.75M28.98 22.537c.838-.016 1.288.599.972 1.18a60.753 60.753 0 0 1-1.938 3.28c-.258.41-.692.542-1.148.268-.436-.26-.586-.66-.331-1.104a88.653 88.653 0 0 1 1.916-3.211c.135-.215.427-.336.53-.413M37.946 23.15c.147-.155.335-.513.605-.588.273-.076.788.025.92.225a39.634 39.634 0 0 1 2.088 3.557c.115.224-.113.787-.356.97-.207.154-.863.112-.977-.062-.799-1.207-1.51-2.47-2.242-3.719-.034-.057-.017-.144-.038-.384M27.441 1.827c.14.108.47.257.632.509.636.989 1.226 2.006 1.817 3.022.285.488.208.935-.318 1.218-.505.271-.915.074-1.187-.369-.629-1.022-1.258-2.044-1.843-3.089-.354-.63.03-1.274.9-1.29M37.946 6.053c.026-.228.016-.286.04-.325.73-1.262 1.433-2.543 2.234-3.761.117-.179.78-.184 1.045-.027.218.128.403.71.29.93a40.65 40.65 0 0 1-2.08 3.598c-.134.204-.684.283-.976.198-.258-.076-.425-.46-.553-.613M47.054 7.715c-.107.141-.251.479-.5.64-.985.64-2.001 1.23-3.01 1.83-.488.288-.953.223-1.224-.298-.269-.515-.083-.952.409-1.246.987-.591 1.96-1.208 2.957-1.78.682-.392 1.335-.053 1.368.854M21.612 22.536c-.176-.152-.539-.32-.626-.583-.09-.27-.02-.804.167-.924a44.071 44.071 0 0 1 3.695-2.124c.2-.102.787.155.891.386.127.28.06.903-.145 1.04-1.144.76-2.354 1.419-3.544 2.107-.08.047-.19.045-.438.098M34.906 2.785c0 .566.012 1.132-.003 1.698-.015.553-.25.985-.873.998-.668.015-.924-.428-.93-1.015a150.228 150.228 0 0 1 0-3.47c.006-.553.24-.982.872-.996.674-.014.918.424.932 1.013.013.59.003 1.181.002 1.772M21.852 15.225c-.61 0-1.22.006-1.83-.002-.56-.007-.885-.35-.897-.908-.011-.538.334-.882.834-.894a83.93 83.93 0 0 1 3.806.001c.514.011.833.378.824.903-.01.562-.35.89-.906.898-.61.008-1.22.002-1.83.002M46.093 15.225c-.586 0-1.172.002-1.758-.001-.554-.004-.907-.321-.924-.877-.017-.562.34-.915.88-.926a87.12 87.12 0 0 1 3.661-.003c.557.011.959.334.92.958-.034.561-.397.854-.948.851-.61-.002-1.22 0-1.831-.002M34.904 26.531c0 .59.018 1.18-.005 1.77-.02.53-.297.919-.864.935-.608.016-.92-.376-.931-.941a111.127 111.127 0 0 1 0-3.613c.008-.531.282-.911.862-.927.62-.017.912.365.932.933.023.614.005 1.229.006 1.843M22.168 6.7c.293.073.45.078.571.147 1.08.616 2.162 1.23 3.226 1.872.47.284.563.75.303 1.212-.256.454-.705.531-1.143.288-1.087-.602-2.182-1.198-3.213-1.89-.253-.17-.384-.707-.354-1.058.019-.225.433-.417.61-.571M42.988 18.882c1.384.846 2.712 1.63 3.99 2.485.133.089.084.707-.09.885-.201.205-.725.36-.955.246a37.937 37.937 0 0 1-3.433-1.932c-.223-.141-.346-.635-.29-.925.048-.246.423-.431.778-.76"/>
    </g>
</svg>
