<?xml version="1.0" encoding="utf-8"?><svg xmlns="http://www.w3.org/2000/svg" width="57" height="43" viewBox="0 0 57 43"><g><g clip-path="url(#clip-C2B0A939-0502-4437-AD4F-2A3E91F6B14E)"><path fill="#00a859" d="M56.986 40.981c-.005 1.168-.704 1.969-1.738 1.993h-.045c-.994 0-1.711-.784-1.75-1.924a4.459 4.459 0 0 0-.018-.24l-.05-.618-23.02-5.298-.065.781c-.016.195-.026.387-.036.577-.02.373-.038.725-.101 1.048-.67 3.45-3.11 5.562-6.526 5.647-3.281.083-6.755.068-10.326-.041-3.043-.094-5.822-2.909-5.948-6.025-.067-1.665-.06-3.37-.054-5.017l.003-1.228c0-.741-.352-1.178-1.05-1.298-.437-.076-.878-.184-1.344-.297-.207-.05-.417-.102-.633-.152l-.573-.132-.206.558c-.241.659-.61 1.055-1.159 1.248a1.688 1.688 0 0 1-1.563-.209C.3 30.006.02 29.433.016 28.78 0 26.406 0 23.99 0 21.656v-1.14c0-1.59.004-3.18.008-4.771l.004-1.404c.002-.765.254-1.732 1.442-1.991.838-.184 1.574.267 2.018 1.235.046.1.103.17.137.21l.292.38L53.406 2.777l.025-.516.009-.219c.004-.128.008-.249.02-.368C53.55.714 54.298 0 55.207 0h.035c.981.02 1.712.778 1.739 1.802.02.736.018 1.49.017 2.219v34.374c0 .563-.004 1.127-.007 1.69zm-30.241-5.655c.063-.576-.082-1.31-1.127-1.538-1.779-.389-3.585-.808-5.331-1.212l-1.982-.458-7.465-1.715v.852c0 .543-.003 1.078-.006 1.609-.006 1.259-.013 2.448.016 3.665.037 1.525 1.404 2.87 2.925 2.877 1.59.007 3.225.011 4.976.011 1.56 0 3.21-.003 5-.009a2.948 2.948 0 0 0 2.852-2.334c.081-.387.094-.763.106-1.128.007-.218.014-.424.036-.62zm26.67-28.852L3.58 17.971v7.017l49.835 11.514z"/></g></g></svg>