<?xml version="1.0" encoding="utf-8"?><svg xmlns="http://www.w3.org/2000/svg" width="70" height="58" viewBox="0 0 70 58"><g><g clip-path="url(#clip-FC9D00A4-7C27-0830-3711-70678007ADD9)"><path fill="#00a859" d="M62.71 49.028c-.384 5.77-5.025 8.267-8.428 8.157-3.473-.112-7.651-2.736-7.96-8.102H23.61c-.102 2.746-1.247 4.988-3.506 6.6-1.493 1.068-3.185 1.576-5.028 1.487-3.62-.176-7.487-2.956-7.818-8.142h-.727c-1.508 0-3.015.004-4.523-.002-1.419-.004-1.999-.58-2.006-1.983-.005-1.026 0-2.052 0-3.078 0-2.508-.004-5.016.001-7.523.002-1.396.61-2.003 2-2.004 2.833-.003 5.666 0 8.499 0h.899v-.787-13.268c0-1.641.536-2.179 2.165-2.179h8.39v-.83V2.6c0-1.738.54-2.27 2.305-2.27h21.45c1.728 0 2.287.564 2.287 2.3v15.574h.812c2.581 0 5.163-.004 7.744.002 1.393.003 1.996.611 1.998 2.006.003 4.469 0 8.937 0 13.406v.82h.866c2.764 0 5.529-.002 8.293 0 1.713.001 2.24.535 2.24 2.256.001 3.42.003 6.84 0 10.26 0 1.505-.56 2.07-2.053 2.073-1.508.004-3.016 0-4.523 0zm3.954-11.296H3.31v8.058c1.388 0 2.712-.024 4.034.012.506.014.758-.17 1.001-.603 1.55-2.76 3.971-4.22 7.103-4.23 3.14-.01 5.545 1.488 7.125 4.208.268.463.534.626 1.06.625 7.56-.018 15.119-.02 22.679.001.564.002.844-.19 1.1-.674 1.48-2.801 4.83-4.519 7.968-4.115 2.827.362 4.917 1.809 6.316 4.28.11.193.323.464.494.468 1.476.038 2.953.022 4.474.022zm-41.4-19.556h19.423V3.634H25.264zM14.71 34.408h18.605V21.494H14.71zm21.949-.03h18.58V21.472H36.66zm-21.215 9.821c-2.695.004-4.884 2.198-4.861 4.873.023 2.69 2.232 4.88 4.896 4.854a4.877 4.877 0 0 0 4.857-4.89c-.004-2.692-2.177-4.84-4.892-4.837zm39.052 9.728c2.671.011 4.866-2.182 4.875-4.871a4.84 4.84 0 0 0-4.873-4.856c-2.716.006-4.877 2.16-4.87 4.853a4.875 4.875 0 0 0 4.868 4.874z"/></g></g></svg>