<?xml version="1.0" encoding="utf-8"?><svg xmlns="http://www.w3.org/2000/svg" width="90" height="197" viewBox="0 0 90 197"><g><g clip-path="url(#clip-83550258-44DD-41B3-A263-2B12E3F9ED90)"><path fill="#00a859" d="M42.565 169.073c-1.246-2.527-3.009-4.823-5.116-6.928-1.927-12.309-3.934-24.595-6.342-36.802 4.05-.592 6.855.242 8.182 2.78.297 1.842.57 3.689.821 5.536 1.587 11.719 2.246 23.544 2.455 35.414M4.901 14.065c-1.867-3.104-3.636-2.826-4.089.497-.571 4.191.996 9.762 1.934 13.99L16.01 88.357c.57 3.057 2.805 4.291 4.946 4.124 2.608 9.151 4.809 18.382 6.748 27.661-5.94 2.48-13.967 8.325-24.11 17.59 10.354-6.196 18.983-10.422 25.254-11.946 2.223 11.247 4.101 22.557 5.889 33.895-3.764-3.12-8.224-5.79-12.678-8.162C32.621 161.241 40.323 176.1 39.772 197h11.434l.578-36.758a254.126 254.126 0 0 1 6.91-30.914c2.612-2.381 6.571-2.904 11.136-1.057 6.112 2.47 7.502 17.994 19.86 21.342-14.884-8.499-11.436-22.955-19.725-25.431-3.776-1.13-7.342-.946-9.927.648.514-1.668 1.045-3.33 1.593-4.99 2.16-.112 4.326-1.65 4.825-5.112l17.74-57.159c1.259-4.056 3.33-9.426 3.411-13.482.074-3.592-1.59-4.233-3.76-1.606-2.739 3.313-4.39 8.873-5.857 12.967l-20.777 57.914c-1.18 2.967.144 5.17 2.131 6.057-6.123 18.605-10.168 37.729-11.923 57.317l-.002.004-1.024-17.225.777-5.51c1.807-12.826 3.595-25.667 5.703-38.443.938-5.708 1.93-11.6 3.14-17.413 2.419.018 4.943-1.717 5.082-5.67l11.468-58.74c.815-4.168 2.295-9.73 1.94-13.77-.319-3.581-2.042-4.036-3.915-1.19-2.364 3.587-3.405 9.295-4.424 13.524L51.761 92.122c-.746 2.688.348 4.59 2.017 5.474-1.223 5.87-2.226 11.823-3.176 17.59-2.05 12.43-3.799 24.915-5.554 37.39-.195-23.339.664-46.486 3.346-70.012 2.663.17 5.568-1.8 5.261-6.183l5.236-59.624c.372-4.233 1.261-9.916.481-13.898-.69-3.527-2.452-3.799-4.017-.771-1.974 3.817-2.408 9.602-2.977 13.914l-8.045 61.002c-.39 2.337.48 3.97 1.825 4.84-2.109 18.317-3.11 36.402-3.372 54.524-.924-7.572-2.215-15.102-3.996-22.58 2.146-1 3.592-3.549 2.004-7.103L25.332 49.033c-1.096-4.089-2.201-9.704-4.31-13.21-1.866-3.107-3.638-2.826-4.089.497-.57 4.189.999 9.76 1.935 13.989l13.263 59.803c.518 2.797 2.438 4.07 4.402 4.137.504 2.11.966 4.224 1.396 6.346-1.763-1.899-4.438-2.32-8.039-1.243-1.936-9.252-4.138-18.452-6.743-27.579 1.872-1.136 2.99-3.561 1.528-6.846L9.21 27.277C8.115 23.186 7.009 17.57 4.9 14.065"/></g></g></svg>