<?xml version="1.0" encoding="utf-8"?><svg xmlns="http://www.w3.org/2000/svg" width="220" height="46" viewBox="0 0 220 46"><g><g><g><g><g><path fill="#00a859" d="M0 0h60.731v46H0z"/></g><g><path fill="#f4d419" d="M45.396 7.36l-1.16 12.351 7.62-10.115-5.602 11.234 10.851-7.066-9.337 8.794 12.718-3.202-11.91 5.286 13.071 1.118H22.08l13.071-1.118-11.86-5.286 12.668 3.202-9.185-8.794 10.75 7.066-5.451-11.234 7.47 10.115-1.01-12.351 3.381 11.945z"/></g><g><path fill="#fefefe" d="M37.73 46l4.6-15.64L40.904 46z"/></g><g><path fill="#fefefe" d="M33.13 45.08l8.282-15.64-5.606 15.64z"/></g><g><path fill="#fefefe" d="M27.61 46l12.882-16.56L30.462 46z"/></g><g><path fill="#fefefe" d="M23 45.192L40.483 29.44 25.476 46H23z"/></g><g><path fill="#fefefe" d="M23 38.92l16.563-10.4L23 42.32z"/></g><g><path fill="#fefefe" d="M23 33.695l16.563-5.175L23 36.8z"/></g><g><path fill="#fefefe" d="M23 27.6h16.563L23 30.36z"/></g><g><path fill="#fefefe" d="M46.93 46l-4.6-15.64L43.705 46z"/></g><g><path fill="#fefefe" d="M50.612 45.08L42.33 29.44l5.64 15.64z"/></g><g><path fill="#fefefe" d="M56.132 46L43.25 29.44 53.28 46z"/></g><g><path fill="#fefefe" d="M61.653 45.192L44.17 29.44 59.127 46h2.526z"/></g><g><path fill="#fefefe" d="M60.733 38.92L44.17 28.52l16.563 13.8z"/></g><g><path fill="#fefefe" d="M61.653 33.695L45.09 28.52l16.563 8.28z"/></g><g><path fill="#fefefe" d="M61.653 27.6H45.09l16.563 2.76z"/></g><g><path fill="#fefefe" d="M4.503 8.665L7.897 21.07c.304.7.051 1.2-.354 1.45.557 2.002 1.064 3.952 1.469 5.953.81-.25 1.368-.15 1.773.25l-.304-1.35c-.405 0-.861-.3-.962-.9L6.63 13.616c-.203-.9-.507-2.1-.406-3.001.102-.7.507-.75.912-.1.507.75.71 1.95.963 2.851l3.395 12.405c.304.8 0 1.35-.456 1.55.354 1.601.658 3.202.86 4.853.102-3.902.305-7.803.76-11.755-.303-.2-.506-.55-.405-1.05l1.774-13.156c.152-.95.253-2.2.658-3.001.304-.65.71-.6.862.15.152.85 0 2.1-.102 3.001L14.281 19.22c.05.95-.608 1.401-1.165 1.351-.558 5.052-.76 10.054-.71 15.056.406-2.701.76-5.402 1.216-8.053.203-1.25.456-2.551.71-3.802-.406-.2-.608-.6-.456-1.2l3.141-12.855c.203-.9.456-2.151.963-2.902.405-.6.81-.5.861.25.101.85-.203 2.051-.405 2.952L15.953 22.67c-.05.85-.608 1.2-1.115 1.2-.304 1.25-.506 2.501-.709 3.752-.507 2.751-.861 5.502-1.267 8.253l-.152 1.2.203 3.702c.355-4.251 1.267-8.353 2.584-12.355-.405-.2-.71-.65-.456-1.3l4.51-12.455c.303-.9.658-2.101 1.266-2.802.456-.55.81-.4.81.35-.05.85-.506 2.051-.76 2.902l-3.85 12.305c-.101.75-.608 1.1-1.064 1.1-.101.35-.253.7-.355 1.05.558-.35 1.368-.4 2.179-.15 1.824.5 1.064 3.602 4.307 5.453-2.736-.75-3.04-4.052-4.358-4.602-1.013-.35-1.874-.25-2.432.25a50.54 50.54 0 0 0-1.52 6.653l-.1 7.903H11.19c.152-4.502-1.571-7.703-3.851-9.804 1.013.5 1.976 1.1 2.787 1.75-.355-2.45-.76-4.901-1.267-7.302-1.368.3-3.243 1.2-5.523 2.55 2.23-2 3.952-3.25 5.27-3.8-.406-2.002-.912-4.002-1.47-5.953-.456 0-.962-.25-1.064-.9L3.185 8.764c-.202-.9-.506-2.1-.405-3.001.101-.7.507-.75.912-.1.456.75.71 1.95.81 3.001zM11.9 39.028c-.05-2.552-.203-5.103-.507-7.604-.101-.4-.152-.8-.202-1.2-.254-.55-.912-.75-1.774-.6.507 2.6.963 5.252 1.368 7.903.456.45.862.95 1.115 1.5"/></g><g><path fill="#00a859" d="M79.206 5.543v3.518H74.76V4.588a1.01 1.01 0 0 0-2.021 0V20.92a1.01 1.01 0 0 0 2.02 0v-4.673H73.7v-2.915h5.507v11.206l-2.324.05-.607-1.608c-1.768 1.91-3.183 1.86-3.536 1.86-2.527 0-4.649-2.11-4.649-4.674V5.593c0-2.562 2.072-4.673 4.649-4.673h1.819c2.526 0 4.648 2.11 4.648 4.623zm8.337-4.422c3.487.05 4.7 1.658 4.75 3.518v3.517c0 .855.1 1.106-.455 1.86-.455.653-1.263 1.206-2.375 1.658 2.173.703 2.88 2.06 2.83 3.166v6.784c0 .603.1 1.206.303 1.859l.505 1.156h-4.699c-.556-.553-.808-1.156-.808-1.91v-9.347c-.202-.502-.96-.703-2.122-.653v11.91h-4.7V1.12zm-2.021 9.357h.91c.859-.05 1.263-.554 1.212-1.56V4.79c0-.704-.353-1.157-1.111-1.157h-1.011zm8.842-9.357h9.964v2.714h-5.26v6.583h4.755v2.713h-4.755v8.794h5.26v2.714h-9.964zm11.268 0h9.964v2.714h-5.26v6.583h4.754v2.713h-4.754v8.794h5.26v2.714h-9.964zm11.217 0h5.66l3.385 11.709V1.12h4.042v23.468h-5.053l-3.992-13.418V24.64h-4.042zm63.21 0h4.8v23.468h-4.8zm-35.319 0c3.487.05 4.7 1.658 4.75 3.518v6.733c0 3.468-2.375 4.322-5.204 4.322h-1.617v8.844h-4.7V1.121zm-2.02 11.608h.909c.859-.05 1.263-.553 1.212-1.558V4.84c0-.704-.353-1.156-1.111-1.156h-1.01zm15.259-11.608c3.486.05 4.699 1.658 4.75 3.518v3.517c0 .855.1 1.106-.455 1.86-.455.653-1.264 1.206-2.375 1.658 2.172.703 2.88 2.06 2.83 3.166v6.784c0 .603.1 1.206.302 1.859l.506 1.156h-4.7c-.555-.553-.808-1.156-.808-1.91v-9.347c-.202-.502-.96-.703-2.122-.653v11.91h-4.699V1.12zm-2.021 9.357h.905c.855-.05 1.257-.554 1.207-1.56V4.79c0-.704-.352-1.157-1.107-1.157h-1.005zm50.325-9.357h9.964v2.714h-5.26v6.583h4.754v2.713h-4.754v8.794h5.26v2.714h-9.964zm-6.265 0h4.8v23.468h-4.8zm-13.491 0h6.72c3.486.05 4.699 1.658 4.75 3.518v3.517c0 .855.1 1.106-.455 1.86-.455.653-1.263 1.206-2.375 1.658 2.173.703 2.88 2.06 2.83 3.166v6.784c0 .603.1 1.206.303 1.859l.505 1.156h-4.649c-.555-.553-.808-1.156-.808-1.91v-9.347c-.202-.502-.96-.703-2.122-.653v11.91h-4.7zm4.699 9.357h.905c.855-.05 1.257-.554 1.207-1.56V4.79c0-.704-.352-1.157-1.106-1.157h-1.006zM168.135 1.12h7.074l3.587 23.468h-4.85l-.86-6.433h-2.88l-.859 6.433h-4.8zm4.598 14.02l-1.061-8.09-1.061 8.09z"/></g><g><path fill="#00a859" d="M69.01 27.6h147.227v.92H69.01z"/></g><g><g><path fill="#00a859" d="M69.16 43.751V31.85h1.061v11.901z"/></g><g><path fill="#00a859" d="M73.11 43.746V31.33l8.186 9.943v-9.428h.96v12.262l-8.186-9.943v9.634h-.96z"/></g><g><path fill="#00a859" d="M87.204 43.751v-10.87H84.02V31.85h7.428v1.03h-3.183v10.871z"/></g><g><path fill="#00a859" d="M93.22 43.751V31.85h5.71v1.03h-4.649v3.71h4.7v1.03h-4.7v5.152h4.7v1.03H93.22z"/></g><g><path fill="#00a859" d="M103.632 32.829c.96 0 1.617.154 2.022.515.404.36.606.927.606 1.752 0 .773-.151 1.34-.556 1.648-.404.31-1.111.464-2.072.464h-1.06v-4.38zm.758 5.203c.96 0 1.668-.257 2.224-.772.556-.516.808-1.237.808-2.164 0-1.082-.353-1.906-.96-2.422-.657-.566-1.566-.824-2.83-.824h-2.122v11.901h1.061v-5.667h.657l4.043 5.667h1.263z"/></g><g><path fill="#00a859" d="M110.05 43.746V31.33l8.186 9.943v-9.428h.96v12.262l-8.186-9.943v9.634h-.96z"/></g><g><path fill="#00a859" d="M125.563 33.647l1.97 5.152h-4.042zm-3.942 10.098l1.516-4.019h4.75l1.466 4.019h1.162l-4.851-12.365-5.104 12.365z"/></g></g><g><g><path fill="#00a859" d="M132.172 43.751v-10.87h-3.192V31.85h7.447v1.03h-3.191v10.871z"/></g><g><path fill="#00a859" d="M138.15 43.751V31.85h1.064v11.901z"/></g><g><path fill="#00a859" d="M145.846 42.72c-.608-.258-1.114-.618-1.621-1.134a5.182 5.182 0 0 1-1.115-1.7 5.261 5.261 0 0 1-.405-2.009c0-.721.152-1.391.405-2.01a5.182 5.182 0 0 1 2.787-2.833c.608-.258 1.216-.412 1.925-.412.71 0 1.368.154 1.976.412.608.258 1.165.618 1.62 1.134a5.182 5.182 0 0 1 1.115 1.7c.304.618.406 1.288.406 2.009 0 .67-.152 1.391-.406 2.01a5.182 5.182 0 0 1-2.786 2.833c-.659.257-1.266.412-1.976.412-.709 0-1.368-.155-1.925-.412zm7.65-7.316c-.304-.773-.76-1.443-1.368-2.06a5.87 5.87 0 0 0-1.976-1.34 6.391 6.391 0 0 0-2.431-.464c-.862 0-1.622.155-2.381.464-.71.309-1.419.772-1.976 1.34-.608.617-1.064 1.287-1.368 2.06a6.427 6.427 0 0 0-.456 2.421c0 .825.152 1.65.456 2.37.304.722.76 1.391 1.368 2.01.608.566 1.266 1.03 2.026 1.34.76.308 1.57.463 2.381.463.862 0 1.621-.155 2.381-.464a5.82 5.82 0 0 0 2.027-1.34 5.432 5.432 0 0 0 1.368-2.009 6.164 6.164 0 0 0 .456-2.37 5.77 5.77 0 0 0-.507-2.421z"/></g><g><path fill="#00a859" d="M156.33 43.746V31.33l8.207 9.943v-9.428h.963v12.262l-8.207-9.943v9.634h-.963z"/></g><g><path fill="#00a859" d="M171.886 33.647l1.976 5.152h-4.053zm-4.002 10.098l1.52-4.019h4.762l1.469 4.019h1.165l-4.863-12.365-5.117 12.365z"/></g><g><path fill="#00a859" d="M178.12 43.751V31.85h1.064v10.87h4.002v1.031z"/></g><g><path fill="#00a859" d="M189.46 43.751V31.85h1.064v11.901z"/></g><g><path fill="#00a859" d="M193.42 43.746V31.33l8.207 9.943v-9.428h.963v12.262l-8.207-9.943v9.634h-.963z"/></g><g><path fill="#00a859" d="M214.849 34.063a6.08 6.08 0 0 0-1.773-1.133c-.608-.258-1.216-.361-1.925-.361-1.52 0-2.736.464-3.648 1.442-.963.98-1.418 2.267-1.418 3.813 0 .773.1 1.494.354 2.112.253.618.557 1.185 1.064 1.649a4.998 4.998 0 0 0 1.621 1.082c.608.257 1.267.36 1.925.36.659 0 1.317-.103 1.925-.36a7.193 7.193 0 0 0 1.824-1.03v1.287c-.557.361-1.165.619-1.824.825a6.197 6.197 0 0 1-1.874.309 6.582 6.582 0 0 1-2.432-.464c-.76-.309-1.418-.721-1.976-1.288-.557-.567-1.013-1.236-1.266-2.01a6.695 6.695 0 0 1-.456-2.472c0-.876.152-1.7.456-2.473.304-.773.71-1.443 1.266-2.01.558-.566 1.216-.978 1.976-1.287.76-.31 1.57-.464 2.381-.464.76 0 1.419.103 2.077.31a5.602 5.602 0 0 1 1.723.926z"/></g><g><path fill="#00a859" d="M217.23 43.074c0-.257.101-.412.253-.566a.808.808 0 0 1 .558-.258c.202 0 .405.103.557.258.152.154.253.36.253.566 0 .258-.101.412-.253.567a.808.808 0 0 1-.557.258.808.808 0 0 1-.558-.258c-.202-.155-.253-.31-.253-.567z"/></g></g></g></g></g></g></svg>