<?xml version="1.0" encoding="utf-8"?><svg width="223" height="202" viewBox="0 0 223 202" xmlns="http://www.w3.org/2000/svg" xmlns:xlink="http://www.w3.org/1999/xlink"><svg width="43" height="43" data-name="Component 13 – 2" viewBox="-5 -5 43 43" id="accordion-arrow" x="157.75" xmlns="http://www.w3.org/2000/svg"><g data-name="Group 372" transform="rotate(-90 -621.75 1132.75)"><rect width="33" height="33" fill="#ffc400" data-name="Rectangle 39" rx="8" transform="translate(478 1754.5)"/><path fill="#fff" d="M504.34 1767.699l-10.082 8.247-.01.011v-.011l-10.09-8.247 1.013-1.476 9.081 7.43 9.076-7.43z" data-name="Path 238"/></g></svg><svg width="22" height="24" viewBox="-5 -5 22 24" id="arrow-button" x="200.75" xmlns="http://www.w3.org/2000/svg"><path fill="#00a859" d="M12 6.865a.54.54 0 01-.156.406c-.025.025-.062.018-.09.036l-6.823 6.26a.546.546 0 01-.77-.772l6.467-5.932L4.16.93a.544.544 0 11.77-.77l6.822 6.256c.029.02.067.013.092.038a.538.538 0 01.155.41z"/><path fill="#00a859" d="M8 6.865a.54.54 0 01-.156.406c-.025.025-.062.018-.09.036l-6.823 6.26a.546.546 0 01-.77-.772l6.467-5.932L.16.93A.544.544 0 11.93.16l6.822 6.256c.029.02.067.013.092.038a.538.538 0 01.155.41z"/></svg><svg width="22" height="24" viewBox="-5 -5 22 24" id="arrow-button-yellow" x="200.75" y="24" xmlns="http://www.w3.org/2000/svg"><path fill="#f4d419" d="M12 6.865a.54.54 0 01-.156.406c-.025.025-.062.018-.09.036l-6.823 6.26a.546.546 0 01-.77-.772l6.467-5.932L4.16.93a.544.544 0 11.77-.77l6.822 6.256c.029.02.067.013.092.038a.538.538 0 01.155.41z"/><path fill="#f4d419" d="M8 6.865a.54.54 0 01-.156.406c-.025.025-.062.018-.09.036l-6.823 6.26a.546.546 0 01-.77-.772l6.467-5.932L.16.93A.544.544 0 11.93.16l6.822 6.256c.029.02.067.013.092.038a.538.538 0 01.155.41z"/></svg><svg width="35.47" height="21.26" viewBox="-5 -5 35.47 21.26" id="arrow-down" x="157.75" y="118.64999999999999" xmlns="http://www.w3.org/2000/svg"><g data-name="Component 27 – 2"><path fill="#e0e1e3" d="M25.47 1.706l-12.726 9.536-.012.012-.006-.012L0 1.706 1.278 0l11.46 8.587L24.192 0z" data-name="Path 238"/></g></svg><svg width="16.6" height="23.8" viewBox="-5 -5 16.6 23.8" id="back" x="200.75" y="48" xmlns="http://www.w3.org/2000/svg"><g data-name="Group 400"><path fill="#707070" d="M5.602 13.8L.008 6.905l-.007-.007h.007L5.602.003l1 .693-5.038 6.209 5.038 6.206z" data-name="Path 238"/></g></svg><svg width="25" height="19" viewBox="-5 -5 25 19" id="dropdown-arrow" x="124.15" y="145.16" xmlns="http://www.w3.org/2000/svg"><path fill="#f4d419" d="M7.135 8.06a.54.54 0 01-.406-.156c-.025-.025-.018-.062-.036-.09L.433.991a.546.546 0 01.772-.77l5.932 6.467L13.07.22a.544.544 0 11.77.77L7.584 7.812c-.02.029-.013.067-.038.092a.538.538 0 01-.41.155z"/></svg><svg width="32" height="31" viewBox="-5 -5 32 31" id="facebook" x="30.15" y="145.16" xmlns="http://www.w3.org/2000/svg"><path fill="#fff" d="M15.521 15.176h-2.517v-3.773h1.28l.194-1.617h-1.474v-.965c0-.431.116-.652.736-.652h.881v-1.41c-.27-.019-.687-.059-1.234-.059-1.137 0-2 .695-2 1.973v1.113H10.04v1.617h1.348v3.773H6.72c-.301 0-.452-.32-.452-.623V5.751c0-.301.15-.546.452-.546h8.801c.3 0 .447.245.447.546v8.802c0 .302-.148.623-.447.623zM.76 10.223c0 5.643 4.58 10.22 10.231 10.22 5.648 0 10.23-4.577 10.23-10.22C21.22 4.577 16.638 0 10.99 0 5.341 0 .76 4.577.76 10.223z"/></svg><svg width="37.06" height="46.08" viewBox="-5 -5 37.06 46.08" id="invoices" x="115.97999999999999" y="47.33" xmlns="http://www.w3.org/2000/svg"><defs><style>.hprefix__cls-1{fill:#fff}</style></defs><g id="hprefix___522575" transform="translate(0 18)"><g id="hprefix__Group_319" transform="translate(0 -18)"><g id="hprefix__Group_318"><path id="hprefix__Path_305" d="M26.838 7.737L19.325.224A.773.773 0 0018.791 0H3.006A3 3 0 000 3.006v30.067a3 3 0 003.006 3.006h21.05a3 3 0 003.006-3.006V8.259a.8.8 0 00-.224-.522zm-7.3-5.179l4.955 4.955h-3.454a1.5 1.5 0 01-1.5-1.5zm6.011 30.515a1.5 1.5 0 01-1.5 1.5H3.006a1.5 1.5 0 01-1.5-1.5V3.006a1.519 1.519 0 011.5-1.515h15.027v4.52a3 3 0 003.006 3.006h4.508z" class="hprefix__cls-1"/><path id="hprefix__Path_306" d="M53.5 169.4H36.958a.758.758 0 100 1.515h16.53a.753.753 0 00.758-.758.742.742 0 00-.745-.758z" class="hprefix__cls-1" transform="translate(-31.704 -148.361)"/><path id="hprefix__Path_307" d="M53.5 133.1H36.958a.758.758 0 100 1.515h16.53a.753.753 0 00.758-.758.735.735 0 00-.745-.758z" class="hprefix__cls-1" transform="translate(-31.704 -116.57)"/><path id="hprefix__Path_308" d="M53.5 205.7H36.958a.758.758 0 100 1.515h16.53a.758.758 0 00.012-1.515z" class="hprefix__cls-1" transform="translate(-31.704 -180.153)"/><path id="hprefix__Path_309" d="M45.974 242.1h-9.016a.758.758 0 000 1.515h9.017a.758.758 0 000-1.515z" class="hprefix__cls-1" transform="translate(-31.704 -212.033)"/><path id="hprefix__Path_310" d="M96.8 97.558a.753.753 0 00.758.758h9.017a.753.753 0 00.758-.758.761.761 0 00-.758-.758h-9.017a.753.753 0 00-.758.758z" class="hprefix__cls-1" transform="translate(-84.778 -84.778)"/><path id="hprefix__Path_311" d="M38.46 48.981h-1.5a.758.758 0 100 1.515h.758a.753.753 0 00.758.758.761.761 0 00.758-.758v-.136a2.249 2.249 0 00-.745-4.372.758.758 0 010-1.515h1.5a.758.758 0 000-1.515h-.759a.753.753 0 00-.758-.758.761.761 0 00-.758.758v.137a2.249 2.249 0 00.745 4.372.758.758 0 110 1.515z" class="hprefix__cls-1" transform="translate(-31.704 -36.959)"/></g></g></g></svg><svg width="31" height="31" viewBox="-5 -5 31 31" id="linkedin" x="62.15" y="145.16" xmlns="http://www.w3.org/2000/svg"><path fill="#fff" d="M13.053 15.313v-3.137c0-.832-.278-1.397-1.035-1.397-.577 0-.91.382-1.062.751-.056.132-.059.315-.059.5v3.283H8.811s.027-5.654 0-6.193h2.086v1.058c.27-.42.916-1.02 2.026-1.02 1.377 0 2.555.88 2.555 2.781v3.374zM6.596 8.582a1.121 1.121 0 01-1.156-1.13c0-.607.467-1.1 1.183-1.1.714 0 1.154.51 1.17 1.115 0 .595-.456 1.115-1.183 1.115zm-.819.538h1.877v6.193H5.777zM0 10.763c0 5.643 4.58 10.22 10.231 10.22 5.648 0 10.23-4.577 10.23-10.22C20.46 5.117 15.878.54 10.23.54 4.581.54 0 5.117 0 10.763z"/></svg><svg id="login" width="30.42" height="36" data-name="Component 24 – 2" viewBox="-5 -5 30.42 36" x="124.02000000000001" y="99.16" xmlns="http://www.w3.org/2000/svg"><defs><style>.jprefix__cls-1{fill:#979797}</style></defs><path id="jprefix__Path_239" d="M100.464 236.265a13.94 13.94 0 00-3.017-8.791 9.189 9.189 0 00-14.391 0 13.936 13.936 0 00-3.016 8.78 24.883 24.883 0 0010.212 2.6 22.723 22.723 0 0010.212-2.589z" class="jprefix__cls-1" data-name="Path 239" transform="translate(-80.04 -212.857)"/><circle id="jprefix__Ellipse_11" cx="5.107" cy="5.107" r="5.107" class="jprefix__cls-1" data-name="Ellipse 11" transform="translate(5.105)"/></svg><svg width="64" height="44.16" viewBox="-5 -5 64 44.16" id="order" xmlns="http://www.w3.org/2000/svg"><defs><style>.kprefix__cls-1{fill:#fff}</style></defs><g id="kprefix__GP-Icon_Shipment"><g id="kprefix__Group_307"><g id="kprefix__Group_306"><path id="kprefix__Path_299" d="M50.241 14.492L48.843 8.9a.851.851 0 00.676-.827v-.9a3.554 3.554 0 00-3.548-3.548H39.6V1.744A1.745 1.745 0 0037.854 0H5.352a1.745 1.745 0 00-1.744 1.744v15.334a.842.842 0 101.684 0V1.744a.065.065 0 01.06-.06h32.487a.065.065 0 01.06.06v15.334a.842.842 0 101.684 0v-.962h9.982A2.775 2.775 0 0152.2 18.04h-2.635a.84.84 0 00-.842.842v1.8a2.65 2.65 0 002.646 2.646h.962v3.732h-2.21a5.358 5.358 0 00-10.132 0h-.406v-6.374a.842.842 0 10-1.684 0v6.374H20.34a5.358 5.358 0 00-10.132 0H5.352a.065.065 0 01-.06-.06v-1.864H8.96a.842.842 0 100-1.684H.842a.842.842 0 000 1.684h2.766V27a1.745 1.745 0 001.744 1.744h4.57v.06a5.352 5.352 0 1010.7 0v-.06h19.066v.06a5.352 5.352 0 1010.7 0v-.06h2.766A.84.84 0 0054 27.9v-9.02a4.392 4.392 0 00-3.759-4.388zM39.583 5.307h6.374a1.864 1.864 0 011.864 1.864v.06h-8.238zm0 9.125V8.9H47.1l1.383 5.532zM15.274 32.487a3.668 3.668 0 113.668-3.668 3.683 3.683 0 01-3.668 3.668zm29.781 0a3.668 3.668 0 113.668-3.668 3.683 3.683 0 01-3.668 3.668zm7.276-10.839h-.962a.969.969 0 01-.962-.962v-.962h1.924v1.924z" class="kprefix__cls-1"/></g></g><g id="kprefix__Group_309" transform="translate(13.535 27.07)"><g id="kprefix__Group_308"><path id="kprefix__Path_300" d="M81.044 158.6a1.744 1.744 0 101.744 1.744 1.745 1.745 0 00-1.744-1.744z" class="kprefix__cls-1" transform="translate(-79.3 -158.6)"/></g></g><g id="kprefix__Group_311" transform="translate(43.303 27.07)"><g id="kprefix__Group_310"><path id="kprefix__Path_301" d="M255.444 158.6a1.744 1.744 0 101.744 1.744 1.726 1.726 0 00-1.744-1.744z" class="kprefix__cls-1" transform="translate(-253.7 -158.6)"/></g></g><g id="kprefix__Group_313" transform="translate(21.659 23.453)"><g id="kprefix__Group_312"><path id="kprefix__Path_302" d="M140.37 137.4h-12.628a.842.842 0 100 1.684h12.628a.84.84 0 00.842-.842.85.85 0 00-.842-.842z" class="kprefix__cls-1" transform="translate(-126.9 -137.4)"/></g></g><g id="kprefix__Group_315" transform="translate(1.809 19.851)"><g id="kprefix__Group_314"><path id="kprefix__Path_303" d="M22.266 116.3H11.442a.842.842 0 000 1.684h10.824a.842.842 0 100-1.684z" class="kprefix__cls-1" transform="translate(-10.6 -116.3)"/></g></g><g id="kprefix__Group_317" transform="translate(15.336 8.117)"><g id="kprefix__Group_316"><path id="kprefix__Path_304" d="M103.929 47.8a.853.853 0 00-1.2 0l-7.517 7.517-3.912-3.911a.85.85 0 00-1.2 1.2l4.51 4.51a.853.853 0 001.2 0L103.929 49a.853.853 0 000-1.2z" class="kprefix__cls-1" transform="translate(-89.85 -47.55)"/></g></g></g></svg><svg id="order-tracking-0" width="44.43" height="45.61" data-name="Component 7 – 2" viewBox="-5 -5 44.43 45.61" x="34" y="99.16" xmlns="http://www.w3.org/2000/svg"><defs><style>.lprefix__cls-1{fill:#fff}</style></defs><path id="lprefix__Path_178" d="M207 568.2h-3.477v-1.558a4.105 4.105 0 00-3.13-3.965v-10.963a1.044 1.044 0 00-1.044-1.044h-24.69a1.043 1.043 0 00-1.043 1.044V580.3a1.043 1.043 0 001.043 1.043h16.066v.855a4.091 4.091 0 004.09 4.083h9.139a4.091 4.091 0 004.09-4.083V569.24A1.044 1.044 0 00207 568.2zm-5.564-1.558v1.558h-4.1v-1.558a2.052 2.052 0 014.1 0zM175.7 579.255v-26.5h22.6v9.934a4.1 4.1 0 00-3.06 3.947v1.564h-3.478a1.043 1.043 0 00-1.043 1.043v10.015zm30.255 2.942a2 2 0 01-2 2h-9.139a2 2 0 01-2-2v-11.913h2.435v2.747a1.044 1.044 0 002.087 0v-2.747h4.1v2.747a1.044 1.044 0 002.087 0v-2.747h2.434z" class="lprefix__cls-1" data-name="Path 178" transform="translate(-173.615 -550.67)"/><path id="lprefix__Path_179" d="M180.493 554.76l-1.185 1.273-.08-.1a1.043 1.043 0 00-1.626 1.307l.834 1.039a1.044 1.044 0 00.775.39h.039a1.043 1.043 0 00.763-.332l2.007-2.156a1.043 1.043 0 10-1.527-1.422z" class="lprefix__cls-1" data-name="Path 179" transform="translate(-173.199 -550.254)"/><path id="lprefix__Path_180" d="M184.74 557.484h9.319a1.043 1.043 0 100-2.086h-9.319a1.043 1.043 0 100 2.086z" class="lprefix__cls-1" data-name="Path 180" transform="translate(-172.499 -550.146)"/><path id="lprefix__Path_181" d="M180.493 560.458l-1.185 1.274-.08-.1a1.043 1.043 0 10-1.626 1.307l.834 1.037a1.044 1.044 0 00.775.39h.039a1.043 1.043 0 00.763-.332l2.007-2.156a1.043 1.043 0 10-1.527-1.422z" class="lprefix__cls-1" data-name="Path 181" transform="translate(-173.199 -549.623)"/><path id="lprefix__Path_182" d="M184.74 563.183h5.841a1.044 1.044 0 100-2.087h-5.841a1.044 1.044 0 100 2.087z" class="lprefix__cls-1" data-name="Path 182" transform="translate(-172.499 -549.516)"/><path id="lprefix__Path_183" d="M180.493 566.156l-1.185 1.274-.08-.1a1.043 1.043 0 10-1.626 1.307l.834 1.039a1.046 1.046 0 00.775.389h.039a1.04 1.04 0 00.763-.333l2.007-2.156a1.043 1.043 0 00-1.527-1.422z" class="lprefix__cls-1" data-name="Path 183" transform="translate(-173.199 -548.992)"/><path id="lprefix__Path_184" d="M186.478 566.794h-1.738a1.043 1.043 0 100 2.087h1.738a1.043 1.043 0 000-2.087z" class="lprefix__cls-1" data-name="Path 184" transform="translate(-172.499 -548.885)"/></svg><svg id="order-tracking-1" width="50.67" height="47.46" data-name="Component 8 – 2" viewBox="-5 -5 50.67 47.46" x="64" y="40.09" xmlns="http://www.w3.org/2000/svg"><defs><style>.mprefix__cls-1{fill:#fff}</style></defs><g id="mprefix__Group_37" data-name="Group 37"><g id="mprefix__Group_36" data-name="Group 36"><path id="mprefix__Path_185" d="M385.892 570.222c-.037-.405.408-1.676.408-2.117s-.479-1.527-.514-1.894.361-2.454.361-2.877a12.569 12.569 0 00-.409-1.459 36.965 36.965 0 01.562-4.135s-3.148-1.015-3.4-1.178-1.756-1.235-2.2-1.43-2.224-.335-2.568-.477a15.026 15.026 0 01-1.826-1.351 9.6 9.6 0 00-2.817-.911h-.056c-.423 0-1.216-.3-1.576-.334a3.556 3.556 0 01-1.581-1c-.238-.346-1.049-.292-1.755-.433a13.072 13.072 0 01-2.557-1.364s-2.129.781-2.474.887-.477.573-1.032.8a16.411 16.411 0 01-2.516.662c-.292.018-.777.688-.865.882s-1.081.21-1.862.485-2.013.7-2.251.848a15.506 15.506 0 00-1.455.98c-.212.211-1.642.439-1.907.609s-1.253 1.134-1.508 1.279-1.887.154-2.384.362-2.079.675-2.079.675v2.1c0 .609.474.864.509 1.146s-.509 1.951-.509 2.295a18.215 18.215 0 01.332 2.224 19.312 19.312 0 00-.332 2.278 12.434 12.434 0 00.474 1.87c.1.513-.433 2.682-.3 3.318a8.3 8.3 0 01-.173 1.906 11.471 11.471 0 00.3 1.607 8.466 8.466 0 01-.3 1.768 6.285 6.285 0 011.135.641 12.383 12.383 0 001.951.8 1.677 1.677 0 00.5.049c.176 0 .37-.007.554-.007.391 0 .735.032.749.22.027.373.9.768 1.324 1.113s2.371.574 2.647.849a4.22 4.22 0 001.757 1.057h.034a17.119 17.119 0 012.356.372 7.964 7.964 0 011.824 1.455c.26.238 1.583.555 2 .821a3.043 3.043 0 001.284.189c.313 0 .555-.018.555-.018l.819.458v.047h.086l.762.424s3.439-.65 3.748-.834 1.695-.406 1.88-.662a2.364 2.364 0 011.522-.47h.086c.605 0 1.71-.779 1.931-.779h.037a5.07 5.07 0 001.878-.531c.265-.263 1.386-1.112 1.536-1.216s1.814-.345 2.224-.583c.393-.231 1.006-.876 1.174-.876a.046.046 0 01.018 0 .162.162 0 00.042.005 8.559 8.559 0 001.944-.482 7.709 7.709 0 00.979-1.243 14.678 14.678 0 011.335-.81v-2.139a15.391 15.391 0 01-.3-1.756c-.037-.582.3-1.88.3-2.3s-.377-1.409-.411-1.815zm-20.116 4.384a4.779 4.779 0 01-.343.93 11.632 11.632 0 00-.685 2.868 3.93 3.93 0 00.273 1.328c.031.1.07.217.092.294-.019.07-.059.182-.09.269a4.157 4.157 0 00-.273 1.084 2.251 2.251 0 00.239 1.157 1.075 1.075 0 01.131.465v1.318l-.43-.24-.5.032s-.2.012-.447.012a4.406 4.406 0 01-.558-.029 8.2 8.2 0 00-1.176-.468c-.164-.058-.4-.136-.536-.191l-.012-.012a5.907 5.907 0 00-2.442-1.722 20.681 20.681 0 00-2.549-.409 5 5 0 01-.787-.573 3.951 3.951 0 00-2.006-.826c-.268-.064-.7-.164-.893-.233a8.626 8.626 0 00-.521-.35c-.071-.047-.163-.1-.242-.157a1.979 1.979 0 00-1.354-1.023 4.013 4.013 0 00-.9-.081h-.611c-.074-.028-.16-.057-.254-.092-.241-.086-.826-.3-1.1-.417a2.949 2.949 0 00-.248-.181 3.329 3.329 0 00.044-1.15 8.288 8.288 0 00-.129-.6 6.294 6.294 0 01-.145-.722c.007-.068.037-.221.059-.334a4.923 4.923 0 00.092-1.857c0-.248.1-.937.161-1.314a6.387 6.387 0 00.131-2.046 7.454 7.454 0 00-.253-.907 6.282 6.282 0 01-.191-.668 15.975 15.975 0 01.278-1.8l.028-.147a5.651 5.651 0 00-.2-2.086c-.028-.134-.062-.3-.084-.419.04-.18.12-.478.175-.69a4.961 4.961 0 00.3-1.838 2.257 2.257 0 00-.447-1.058 4.338 4.338 0 001.2.549c.593.138 1.638.272 2.222.341a3.682 3.682 0 001.488 1.387 6.052 6.052 0 002.354.211 3.29 3.29 0 001.467 1.257c.177.047.417.083.72.13a8.467 8.467 0 011.257.255 2.206 2.206 0 001.447.581 3.508 3.508 0 001.138-.031 1.153 1.153 0 01.26.183 1.888 1.888 0 001.026 1.324 3.927 3.927 0 001.265.539c.234.04 1.223.269 2.049.465a3.388 3.388 0 01-.1 1.709 7.79 7.79 0 00-.063 2.346c.007.2.012.42.012.482a2.305 2.305 0 00.344 1.057c.08.171.209.449.254.575.006.2.023.38.041.556a4.138 4.138 0 01.022.967zm-2.271-9.824a2.719 2.719 0 01-.9-.486 1.844 1.844 0 00-1.017-1.317 1.533 1.533 0 00-1.353-.212 2.847 2.847 0 01-.933-.1c-.385-.435-1.114-.576-2.221-.745-.181-.029-.385-.06-.5-.082a5.1 5.1 0 01-.832-.986l-.288-.429-.511.057a6.063 6.063 0 01-2.014-.044 2.735 2.735 0 01-.875-1.017l-.211-.4-.45-.048c-.016 0-1.7-.181-2.438-.353a1.013 1.013 0 01-.134-.042c.154-.017.309-.031.423-.041a4 4 0 001.68-.363 7.2 7.2 0 001.094-.886c.127-.114.3-.269.42-.373.119-.033.285-.073.408-.1a3.835 3.835 0 001.813-.76c.077-.06.328-.239 1.127-.736l.018-.011c.121-.056.374-.151.66-.254l16.985 7.077-.3.184a3.658 3.658 0 00-.512.411 1.553 1.553 0 01-.18.152.26.26 0 01-.062.006 6.273 6.273 0 00-2.276.28 4.915 4.915 0 00-1.313 1.031c-.2.191-.383.373-.529.489a11.763 11.763 0 01-2.309.664c-.556-.138-2.101-.504-2.475-.567zm11.536 17.518a2.9 2.9 0 00-1.252.442 7.431 7.431 0 01-.686.331 5.036 5.036 0 00-1.4.214 3.18 3.18 0 00-1.135.581c-.149.048-.365.1-.512.144a5.717 5.717 0 00-1.051.344c-.31.092-1.22.289-2.194.484V583a2.72 2.72 0 00-.271-1.143c-.089-.2-.111-.263-.1-.342a2.8 2.8 0 01.18-.651 2.139 2.139 0 00.189-1.015 4.162 4.162 0 00-.176-.647 4.023 4.023 0 01-.191-.712 10.748 10.748 0 01.515-2.216 5.883 5.883 0 00.5-1.469 5.76 5.76 0 00-.012-1.328 5.503 5.503 0 01-.034-.5 3.193 3.193 0 00-.412-1.188c-.06-.127-.143-.307-.185-.41 0-.091-.006-.23-.012-.461-.012-.415-.043-1.486-.016-1.783a4.992 4.992 0 00.185-2.28 7.567 7.567 0 002.357-.843 8.79 8.79 0 00.672-.612 4.886 4.886 0 01.8-.685 5.718 5.718 0 011.608-.143 1.9 1.9 0 001.39-.606 2.265 2.265 0 01.29-.238 8.637 8.637 0 01.955-.528v19.1zm1.039-20.913l-16.98-7.081c.06-.012.12-.027.179-.042a1.942 1.942 0 001.316-1l.033-.048a18.52 18.52 0 002.481-.7 3.271 3.271 0 001.18-.849c.373-.13.973-.346 1.479-.531.113.068.232.14.358.213a6.8 6.8 0 002.067.934c.292.059.568.089.812.115l.231.027a5.359 5.359 0 00.88.676 3.524 3.524 0 001.562.634c.073.014.253.063.374.1a5.465 5.465 0 001.386.249 11.219 11.219 0 011.879.592 9.036 9.036 0 002.176 1.541 6.545 6.545 0 001.511.309c.319.044.836.118 1.051.169.323.18 1.23.805 1.538 1.019.2.14.311.214.384.263a1.508 1.508 0 00.14.082 5.052 5.052 0 00-.563.511 4.382 4.382 0 01-.49.448 2.6 2.6 0 00-1.829 1.358 1.772 1.772 0 01-.677.389c-.4.168-.861.308-1.228.42-.285.087-.5.151-.652.218a3.609 3.609 0 01-.598-.019zm7.475 16.742c-.2.3-.39.561-.522.73-.3.087-.783.2-1.011.234h-.04a2.5 2.5 0 00-1.653.8 6.497 6.497 0 01-.333.274c-.222.07-.735.177-1 .23a3.4 3.4 0 00-1.394.464c-.007 0-.428.315-.87.66V563.1a1.7 1.7 0 00.606-.139c.066-.028.293-.1.475-.153a5.351 5.351 0 002.8-1.457c.441-.63.54-.64.678-.652a2.6 2.6 0 001.455-.93c.1-.1.241-.241.325-.312l1.252-.218-.018.112a9.232 9.232 0 00-.243 2.809 5.479 5.479 0 00.287.981c.03.079.068.179.089.248-.024.22-.093.672-.142.987a9.157 9.157 0 00-.2 2 5.311 5.311 0 00.3 1.151c.058.173.149.442.191.6-.031.149-.092.393-.137.568a5.2 5.2 0 00-.253 1.674 6.4 6.4 0 00.242 1.105c.049.178.128.46.154.605-.017.132-.063.39-.1.568a8.087 8.087 0 00-.2 1.817 14.579 14.579 0 00.3 1.839v.971a2.678 2.678 0 00-1.038.851z" class="mprefix__cls-1" data-name="Path 185" transform="translate(-345.634 -549.267)"/></g></g><g id="mprefix__Group_39" data-name="Group 39" transform="translate(3.388 14.602)"><g id="mprefix__Group_38" data-name="Group 38"><path id="mprefix__Path_186" d="M349.531 562.413a.847.847 0 10.847.846.847.847 0 00-.847-.846z" class="mprefix__cls-1" data-name="Path 186" transform="translate(-348.684 -562.413)"/></g></g><g id="mprefix__Group_41" data-name="Group 41" transform="translate(6.777 21.38)"><g id="mprefix__Group_40" data-name="Group 40"><path id="mprefix__Path_187" d="M352.583 568.516a.846.846 0 10.846.846.846.846 0 00-.846-.846z" class="mprefix__cls-1" data-name="Path 187" transform="translate(-351.736 -568.516)"/></g></g><g id="mprefix__Group_43" data-name="Group 43" transform="translate(13.554 24.768)"><g id="mprefix__Group_42" data-name="Group 42"><path id="mprefix__Path_188" d="M358.684 571.566a.848.848 0 10.849.846.848.848 0 00-.849-.846z" class="mprefix__cls-1" data-name="Path 188" transform="translate(-357.837 -571.566)"/></g></g><g id="mprefix__Group_45" data-name="Group 45" transform="translate(10.166 28.155)"><g id="mprefix__Group_44" data-name="Group 44"><path id="mprefix__Path_189" d="M355.633 574.616a.847.847 0 10.847.849.847.847 0 00-.847-.849z" class="mprefix__cls-1" data-name="Path 189" transform="translate(-354.787 -574.616)"/></g></g><g id="mprefix__Group_47" data-name="Group 47" transform="translate(15.25 28.155)"><g id="mprefix__Group_46" data-name="Group 46"><path id="mprefix__Path_190" d="M360.21 574.616a.847.847 0 10.847.849.847.847 0 00-.847-.849z" class="mprefix__cls-1" data-name="Path 190" transform="translate(-359.364 -574.616)"/></g></g><g id="mprefix__Group_49" data-name="Group 49" transform="translate(3.388 24.768)"><g id="mprefix__Group_48" data-name="Group 48"><path id="mprefix__Path_191" d="M349.531 571.566a.848.848 0 10.847.846.848.848 0 00-.847-.846z" class="mprefix__cls-1" data-name="Path 191" transform="translate(-348.684 -571.566)"/></g></g><g id="mprefix__Group_51" data-name="Group 51" transform="translate(10.166 17.99)"><g id="mprefix__Group_50" data-name="Group 50"><path id="mprefix__Path_192" d="M355.633 565.464a.847.847 0 10.847.847.847.847 0 00-.847-.847z" class="mprefix__cls-1" data-name="Path 192" transform="translate(-354.787 -565.464)"/></g></g><g id="mprefix__Group_53" data-name="Group 53" transform="translate(35.583 15.448)"><g id="mprefix__Group_52" data-name="Group 52"><path id="mprefix__Path_193" d="M378.516 563.175a.847.847 0 10.847.849.847.847 0 00-.847-.849z" class="mprefix__cls-1" data-name="Path 193" transform="translate(-377.67 -563.175)"/></g></g><g id="mprefix__Group_55" data-name="Group 55" transform="translate(32.193 22.227)"><g id="mprefix__Group_54" data-name="Group 54"><path id="mprefix__Path_194" d="M375.465 569.278a.847.847 0 10.846.846.847.847 0 00-.846-.846z" class="mprefix__cls-1" data-name="Path 194" transform="translate(-374.618 -569.278)"/></g></g><g id="mprefix__Group_57" data-name="Group 57" transform="translate(25.416 25.614)"><g id="mprefix__Group_56" data-name="Group 56"><path id="mprefix__Path_195" d="M369.363 572.328a.847.847 0 10.847.849.847.847 0 00-.847-.849z" class="mprefix__cls-1" data-name="Path 195" transform="translate(-368.517 -572.328)"/></g></g><g id="mprefix__Group_59" data-name="Group 59" transform="translate(23.72 18.838)"><g id="mprefix__Group_58" data-name="Group 58"><path id="mprefix__Path_196" d="M367.839 566.227a.846.846 0 10.847.846.847.847 0 00-.847-.846z" class="mprefix__cls-1" data-name="Path 196" transform="translate(-366.99 -566.227)"/></g></g><g id="mprefix__Group_61" data-name="Group 61" transform="translate(23.72 5.281)"><g id="mprefix__Group_60" data-name="Group 60"><path id="mprefix__Path_197" d="M367.839 554.022a.847.847 0 10.847.848.848.848 0 00-.847-.848z" class="mprefix__cls-1" data-name="Path 197" transform="translate(-366.99 -554.022)"/></g></g><g id="mprefix__Group_63" data-name="Group 63" transform="translate(18.638 12.078)"><g id="mprefix__Group_62" data-name="Group 62"><path id="mprefix__Path_198" d="M363.261 560.141a.847.847 0 10.847.846.847.847 0 00-.847-.846z" class="mprefix__cls-1" data-name="Path 198" transform="translate(-362.414 -560.141)"/></g></g><g id="mprefix__Group_65" data-name="Group 65" transform="translate(18.638 5.281)"><g id="mprefix__Group_64" data-name="Group 64"><path id="mprefix__Path_199" d="M363.261 554.022a.847.847 0 10.847.848.848.848 0 00-.847-.848z" class="mprefix__cls-1" data-name="Path 199" transform="translate(-362.414 -554.022)"/></g></g><g id="mprefix__Group_67" data-name="Group 67" transform="translate(13.554 8.672)"><g id="mprefix__Group_66" data-name="Group 66"><path id="mprefix__Path_200" d="M358.684 557.074a.847.847 0 10.849.846.847.847 0 00-.849-.846z" class="mprefix__cls-1" data-name="Path 200" transform="translate(-357.837 -557.074)"/></g></g><g id="mprefix__Group_69" data-name="Group 69" transform="translate(8.471 8.672)"><g id="mprefix__Group_68" data-name="Group 68"><path id="mprefix__Path_201" d="M354.108 557.074a.847.847 0 10.847.846.847.847 0 00-.847-.846z" class="mprefix__cls-1" data-name="Path 201" transform="translate(-353.261 -557.074)"/></g></g><g id="mprefix__Group_71" data-name="Group 71" transform="translate(28.804 8.672)"><g id="mprefix__Group_70" data-name="Group 70"><path id="mprefix__Path_202" d="M372.414 557.074a.847.847 0 10.847.846.847.847 0 00-.847-.846z" class="mprefix__cls-1" data-name="Path 202" transform="translate(-371.567 -557.074)"/></g></g><g id="mprefix__Group_73" data-name="Group 73" transform="translate(23.72 29.004)"><g id="mprefix__Group_72" data-name="Group 72"><path id="mprefix__Path_203" d="M367.839 575.38a.846.846 0 10.847.846.847.847 0 00-.847-.846z" class="mprefix__cls-1" data-name="Path 203" transform="translate(-366.99 -575.38)"/></g></g><g id="mprefix__Group_75" data-name="Group 75" transform="translate(35.583 25.614)"><g id="mprefix__Group_74" data-name="Group 74"><path id="mprefix__Path_204" d="M378.516 572.328a.847.847 0 10.847.849.847.847 0 00-.847-.849z" class="mprefix__cls-1" data-name="Path 204" transform="translate(-377.67 -572.328)"/></g></g></svg><svg id="order-tracking-2" width="51.98" height="40.09" data-name="Component 9 – 2" viewBox="-5 -5 51.98 40.09" x="64" xmlns="http://www.w3.org/2000/svg"><defs><style>.nprefix__cls-1{fill:#fff}</style></defs><g id="nprefix__Group_81" data-name="Group 81" transform="translate(0 2.799)"><g id="nprefix__Group_80" data-name="Group 80"><path id="nprefix__Path_205" d="M563.7 570.73l-6.3-9.794a.7.7 0 00-.588-.322h-7v-4.2a.7.7 0 00-.7-.7h-26.587a.7.7 0 00-.7.7v22.39a.7.7 0 00.7.7h4.957a4.2 4.2 0 008.279 0h15.509a4.2 4.2 0 008.28 0h3.557a.7.7 0 00.7-.7v-7.7a.708.708 0 00-.107-.374zm-31.9 10.87a2.8 2.8 0 112.61-2.61 2.8 2.8 0 01-2.61 2.61zm16.611-23.083h-23.325a.461.461 0 00-.462.461v.477a.462.462 0 00.462.462h23.328v15.392H537a.486.486 0 00-.487.485v.429a.486.486 0 00.487.485h11.409v1.4h-12.648a4.2 4.2 0 00-8.278 0h-4.257v-1.4h2.993a.5.5 0 00.5-.5v-.391a.5.5 0 00-.5-.5h-2.993v-18.202h25.189zm9.794 6.3v-.028l3.166 4.925h-8.762v-4.9zm-2.98 16.783a2.8 2.8 0 112.978-2.977 2.81 2.81 0 01-2.978 2.977zm7.182-6.291h-1.562a.538.538 0 00-.538.538v.324a.537.537 0 00.538.538h1.562v1.4h-2.857a4.2 4.2 0 00-8.279 0h-1.458v-16.094h6.615l.9 1.4h-5.416a.7.7 0 00-.7.7v6.3a.7.7 0 00.7.7h10.363l.132.206z" class="nprefix__cls-1" data-name="Path 205" transform="translate(-521.826 -555.717)"/></g></g><g id="nprefix__Group_83" data-name="Group 83" transform="translate(9.095 25.188)"><g id="nprefix__Group_82" data-name="Group 82"><rect id="nprefix__Rectangle_9" width="1.4" height="1.4" class="nprefix__cls-1" data-name="Rectangle 9" rx=".63"/></g></g><g id="nprefix__Group_85" data-name="Group 85" transform="translate(32.885 25.188)"><g id="nprefix__Group_84" data-name="Group 84"><rect id="nprefix__Rectangle_10" width="1.399" height="1.4" class="nprefix__cls-1" data-name="Rectangle 10" rx=".63"/></g></g><g id="nprefix__Group_87" data-name="Group 87" transform="translate(2.798)"><g id="nprefix__Group_86" data-name="Group 86"><rect id="nprefix__Rectangle_11" width="9.796" height="1.4" class="nprefix__cls-1" data-name="Rectangle 11" rx=".523"/></g></g><g id="nprefix__Group_89" data-name="Group 89"><g id="nprefix__Group_88" data-name="Group 88"><rect id="nprefix__Rectangle_12" width="1.399" height="1.399" class="nprefix__cls-1" data-name="Rectangle 12" rx=".446"/></g></g></svg><svg id="order-tracking-3" width="45.59" height="45.58" data-name="Component 10 – 2" viewBox="-5 -5 45.59 45.58" x="78.43" y="99.16" xmlns="http://www.w3.org/2000/svg"><defs><style>.oprefix__cls-1{fill:#fff}</style></defs><g id="oprefix__Group_95" data-name="Group 95"><g id="oprefix__Group_94" data-name="Group 94"><path id="oprefix__Path_206" d="M733.154 565.472a3.107 3.107 0 00-1.083-2.135l-3.079-2.639v-7.5a1.042 1.042 0 00-1.043-1.042h-4.171a1.031 1.031 0 00-1.028 1.042v2.136l-5.277-4.5a3.112 3.112 0 00-4.067 0l-14.74 12.5a3.126 3.126 0 00-.338 4.412 3.159 3.159 0 003.43.911v15.96a1.032 1.032 0 001.03 1.043h25.162a1.043 1.043 0 001.043-1.043v-15.956a3.128 3.128 0 004.162-3.189zm-8.332-11.229h2.1v4.668l-2.1-1.787zm-5.2 29.334h-8.494v-8.355h8.494zm7.3 0h-5.227v-9.383a1.042 1.042 0 00-1.043-1.043h-10.566a1.03 1.03 0 00-1.028 1.043v9.383h-5.228V567.16l11.6-9.844 11.487 9.834v16.426zm3.906-17.186a1.042 1.042 0 01-1.471.113l-13.241-11.349a1.043 1.043 0 00-1.353 0L701.382 566.5a1.043 1.043 0 01-1.362-1.579l14.739-12.5a1.04 1.04 0 011.358 0l14.6 12.5a1.045 1.045 0 01.111 1.47z" class="oprefix__cls-1" data-name="Path 206" transform="translate(-697.573 -550.081)"/></g></g><g id="oprefix__Group_97" data-name="Group 97" transform="translate(13.57 12.504)"><g id="oprefix__Group_96" data-name="Group 96"><path id="oprefix__Path_207" d="M717.214 561.338h-6.4a1.031 1.031 0 00-1.029 1.043v6.256a1.032 1.032 0 001.029 1.043h6.4a1.043 1.043 0 001.042-1.043v-6.256a1.041 1.041 0 00-1.042-1.043zm-1.029 6.255h-4.324v-4.171h4.324z" class="oprefix__cls-1" data-name="Path 207" transform="translate(-709.79 -561.338)"/></g></g><g id="oprefix__Group_99" data-name="Group 99" transform="translate(17.865 27.24)"><g id="oprefix__Group_98" data-name="Group 98"><circle id="oprefix__Ellipse_5" cx="1.043" cy="1.043" r="1.043" class="oprefix__cls-1" data-name="Ellipse 5"/></g></g></svg><svg width="31.38" height="38.51" data-name="Component 25 – 2" viewBox="-5 -5 31.38 38.51" id="password" x="157.75" y="43" xmlns="http://www.w3.org/2000/svg"><g data-name="Group 185"><path fill="#979797" d="M20.788 10.691h-1.782V8.315a8.316 8.316 0 00-16.631 0v2.376H.594a.594.594 0 00-.594.594v14.849a2.378 2.378 0 002.376 2.376h16.63a2.378 2.378 0 002.376-2.376V11.285a.594.594 0 00-.594-.594zM12.469 23.1a.594.594 0 01-.59.66H9.5a.594.594 0 01-.59-.66l.375-3.369a2.35 2.35 0 01-.972-1.911 2.376 2.376 0 114.752 0 2.35 2.35 0 01-.972 1.911zm2.973-12.407h-9.5V8.315a4.752 4.752 0 019.5 0z" data-name="Path 240"/></g></svg><svg id="pdf" width="30.15" height="34.74" data-name="Component 11 – 2" viewBox="-5 -5 30.15 34.74" y="145.16" xmlns="http://www.w3.org/2000/svg"><defs><style>.qprefix__cls-1{fill:#00a859}</style></defs><g id="qprefix___80942" data-name="80942"><path id="qprefix__Path_244" d="M119.739 298.068c0-.411-.285-.656-.788-.656a1.746 1.746 0 00-.417.04v1.318a1.581 1.581 0 00.338.026c.535.004.867-.271.867-.728z" class="qprefix__cls-1" data-name="Path 244" transform="translate(-114.749 -282.148)"/><path id="qprefix__Path_245" d="M194.261 297.681a2.083 2.083 0 00-.457.04v2.92a1.823 1.823 0 00.351.02 1.384 1.384 0 001.51-1.563 1.281 1.281 0 00-1.404-1.417z" class="qprefix__cls-1" data-name="Path 245" transform="translate(-186.157 -282.403)"/><path id="qprefix__Path_246" d="M58.7 0h-9.942a2.637 2.637 0 00-2.634 2.634v9.738h-.257a1.061 1.061 0 00-1.061 1.061v6.436a1.061 1.061 0 001.061 1.061h.257v1.18a2.636 2.636 0 002.634 2.634h13.56a2.636 2.636 0 002.633-2.634V6.233zM47.59 14.595a8.319 8.319 0 011.364-.092 2.14 2.14 0 011.364.357 1.3 1.3 0 01.477 1.033 1.427 1.427 0 01-.411 1.06 2.07 2.07 0 01-1.45.47 2.614 2.614 0 01-.345-.019V19h-1zm14.728 8.537h-13.56a1.022 1.022 0 01-1.02-1.021V20.93h12.641a1.061 1.061 0 001.061-1.061v-6.436a1.061 1.061 0 00-1.061-1.061H47.738V2.634a1.021 1.021 0 011.02-1.019l9.335-.01v3.45a1.827 1.827 0 001.826 1.826l3.38-.01.038 15.239a1.021 1.021 0 01-1.019 1.021zM51.44 18.979v-4.384a9.09 9.09 0 011.36-.095 2.874 2.874 0 011.828.476 1.975 1.975 0 01.755 1.682 2.262 2.262 0 01-.742 1.808 3.2 3.2 0 01-2.059.576 8.737 8.737 0 01-1.142-.063zm7.227-2.6v.821h-1.6V19h-1.016v-4.464h2.729v.827h-1.716v1.02z" class="qprefix__cls-1" data-name="Path 246" transform="translate(-44.806)"/></g></svg><svg width="55" height="55" viewBox="-5 -5 55 55" id="play" y="44.16" xmlns="http://www.w3.org/2000/svg"><path fill="#d8d8d8" d="M45 22.5L0 45V0z" opacity=".89"/></svg><svg width="41.77" height="47.33" viewBox="-5 -5 41.77 47.33" id="profile" x="115.97999999999999" xmlns="http://www.w3.org/2000/svg"><defs><style>.sprefix__cls-1{fill:#fff}</style></defs><g id="sprefix__Group_320" transform="translate(-.044)"><path id="sprefix__Path_312" d="M59.8 20.1h.241a7.133 7.133 0 005.459-2.347c2.969-3.361 2.471-9.1 2.426-9.66-.2-4.129-2.14-6.088-3.752-7.008A8.52 8.52 0 0060.013 0h-.136a8.745 8.745 0 00-4.159 1.055c-1.628.919-3.6 2.893-3.8 7.038-.06.558-.558 6.3 2.426 9.66A7.178 7.178 0 0059.8 20.1zM54 8.289c0-.03.015-.045.015-.06.256-5.546 4.189-6.134 5.877-6.134h.09c2.08.045 5.636.9 5.877 6.134a.091.091 0 00.015.06c.015.06.558 5.3-1.914 8.078a5.091 5.091 0 01-3.979 1.658h-.075a5.062 5.062 0 01-3.979-1.658C53.472 13.608 53.985 8.334 54 8.289z" class="sprefix__cls-1" transform="translate(-44.001)"/><path id="sprefix__Path_313" d="M31.8 142.475v-.03c0-.06-.015-.121-.015-.2-.045-1.537-.151-5.109-3.5-6.254l-.075-.03a22.491 22.491 0 01-6.42-2.924 1.039 1.039 0 00-1.191 1.7 24.326 24.326 0 007.053 3.225c1.793.648 2 2.562 2.05 4.325a.859.859 0 00.015.2 14.237 14.237 0 01-.166 2.4 28.525 28.525 0 01-13.623 3.165A28.639 28.639 0 012.3 144.871a13.953 13.953 0 01-.166-2.381c0-.06.015-.121.015-.2.06-1.763.256-3.692 2.05-4.325a24.147 24.147 0 007.053-3.225 1.039 1.039 0 00-1.191-1.7 22.306 22.306 0 01-6.42 2.924c-.03.015-.06.015-.075.03C.2 137.14.112 140.727.067 142.249a.859.859 0 01-.015.2v.03a11.871 11.871 0 00.392 3.5.91.91 0 00.407.482 29.278 29.278 0 0015.085 3.692 29.314 29.314 0 0015.085-3.692 1.15 1.15 0 00.407-.482 11.915 11.915 0 00.372-3.504z" class="sprefix__cls-1" transform="translate(0 -112.832)"/></g></svg><svg id="proile" width="33.08" height="37.14" data-name="126486" viewBox="-5 -5 33.08 37.14" x="157.75" y="81.50999999999999" xmlns="http://www.w3.org/2000/svg"><defs><style>.tprefix__cls-1{fill:#fff}</style></defs><g id="tprefix__Group_320" data-name="Group 320"><path id="tprefix__Path_312" d="M142.848 14.622h.18a5.185 5.185 0 003.962-1.714c2.164-2.439 1.8-6.62 1.765-7.019-.14-3-1.557-4.428-2.725-5.1A6.248 6.248 0 00143.006 0h-.1a6.258 6.258 0 00-3.023.77c-1.18.669-2.619 2.1-2.759 5.119-.039.4-.4 4.58 1.765 7.019a5.165 5.165 0 003.959 1.714zm-4.22-8.592c0-.017.006-.034.006-.045.185-4.029 3.046-4.462 4.271-4.462h.067c1.517.034 4.1.652 4.271 4.462a.109.109 0 00.006.045c.006.039.4 3.861-1.388 5.872a3.683 3.683 0 01-2.894 1.2h-.056a3.671 3.671 0 01-2.888-1.2c-1.783-2.002-1.401-5.839-1.395-5.872z" class="tprefix__cls-1" data-name="Path 312" transform="translate(-131.405)"/><path id="tprefix__Path_313" d="M59.154 266.232v-.017c0-.045-.006-.09-.006-.141-.034-1.113-.107-3.715-2.546-4.546l-.056-.017a16.215 16.215 0 01-4.664-2.124.758.758 0 10-.871 1.242 17.5 17.5 0 005.131 2.343c1.309.466 1.455 1.866 1.495 3.147a1.129 1.129 0 00.006.141 10.2 10.2 0 01-.119 1.74 20.681 20.681 0 01-9.907 2.3 20.8 20.8 0 01-9.913-2.31 9.656 9.656 0 01-.118-1.736c0-.045.006-.09.006-.14.039-1.281.185-2.681 1.495-3.147a17.666 17.666 0 005.131-2.343.758.758 0 10-.871-1.242 16.038 16.038 0 01-4.664 2.124l-.056.017c-2.439.837-2.512 3.439-2.546 4.546a1.129 1.129 0 01-.006.141v.017a8.617 8.617 0 00.287 2.546.721.721 0 00.292.354 21.256 21.256 0 0010.969 2.686 21.321 21.321 0 0010.969-2.686.752.752 0 00.292-.354 9.041 9.041 0 00.27-2.541z" class="tprefix__cls-1" data-name="Path 313" transform="translate(-36.073 -244.676)"/></g></svg><svg width="34" height="46" viewBox="-5 -5 34 46" id="scroll" y="99.16" xmlns="http://www.w3.org/2000/svg"><defs><clipPath id="ua"><path fill="#fff" d="M.21 11.59c0-6.075 4.925-11 11-11h1.576c6.075 0 11 4.925 11 11v12.828c0 6.075-4.925 11-11 11H11.21c-6.075 0-11-4.925-11-11z"/></clipPath></defs><g opacity=".7"><path fill="none" stroke="#fff" stroke-miterlimit="50" stroke-width="4" d="M.21 11.59c0-6.075 4.925-11 11-11h1.576c6.075 0 11 4.925 11 11v12.828c0 6.075-4.925 11-11 11H11.21c-6.075 0-11-4.925-11-11z" clip-path="url(#ua)" opacity=".7"/><path fill="#d8d8d8" d="M12 13.978a2.68 2.68 0 100-5.358 2.68 2.68 0 000 5.358z" opacity=".7"/></g></svg><svg width="23.56" height="21.94" viewBox="-5 -5 23.56 21.94" id="tick" y="179.9" xmlns="http://www.w3.org/2000/svg"><path fill="#00a859" d="M.213 6.758a.881.881 0 00.1 1.243l4.35 3.729a.876.876 0 00.572.212h.079a.878.878 0 00.6-.319l7.441-9.065a.882.882 0 00-.121-1.239L11.871.2a.883.883 0 00-1.241.122l-5.726 6.97-2.3-1.972a.884.884 0 00-1.243.1z" data-name="2107593"/></svg><svg width="31" height="31" viewBox="-5 -5 31 31" id="twitter" x="93.15" y="145.16" xmlns="http://www.w3.org/2000/svg"><path fill="#fff" d="M14.645 8.873c0 2.806-2.083 6.043-5.89 6.043a5.767 5.767 0 01-3.175-.954 4.099 4.099 0 003.066-.879 2.081 2.081 0 01-1.934-1.474 2.083 2.083 0 00.957-.038c-.949-.194-1.641-1.054-1.641-2.084v-.024c.27.156.58.254.919.264a2.143 2.143 0 01-.933-1.768c0-.388.097-.755.275-1.067 1.021 1.285 2.544 2.13 4.266 2.218a2.055 2.055 0 01-.056-.482c0-1.173.927-2.125 2.07-2.125.595 0 1.133.257 1.51.669.472-.094.914-.27 1.316-.515a2.11 2.11 0 01-.912 1.175 3.99 3.99 0 001.189-.334 4.24 4.24 0 01-1.032 1.1c.002.092.005.183.005.275zM.52 10.763c0 5.643 4.58 10.22 10.231 10.22 5.648 0 10.23-4.577 10.23-10.22C20.98 5.117 16.398.54 10.75.54 5.101.54.52 5.117.52 10.763z"/></svg></svg>